<svg width="40" height="40" viewBox="0 0 40 40" fill="none" xmlns="http://www.w3.org/2000/svg">
<circle cx="20" cy="20" r="20" fill="#7D34C8" fill-opacity="0.0419854"/>
<path fill-rule="evenodd" clip-rule="evenodd" d="M26.6876 25.585C26.6923 25.5807 26.6967 25.5766 26.7008 25.5726C26.6996 25.5738 26.698 25.5757 26.6962 25.5788L26.6876 25.585ZM25.8385 22.8522C25.1549 21.4851 23.0973 19.5857 22.7429 19.5857C22.763 19.5857 22.7356 19.5972 22.657 19.6469C22.7239 19.6046 22.3119 19.8762 22.1606 19.9627C21.5848 20.2917 20.9408 20.4714 20.0857 20.4714C17.5411 20.4714 16.0429 18.4284 16.0429 15.1C16.0429 12.9808 17.6718 11.5 20.0857 11.5C22.4996 11.5 24.1286 12.9808 24.1286 15.1C24.1286 16.3516 23.9691 17.3084 23.6329 17.9807C23.5094 18.2277 23.2091 18.3279 22.9621 18.2044C22.7151 18.0809 22.615 17.7805 22.7385 17.5335C22.9928 17.025 23.1286 16.2103 23.1286 15.1C23.1286 13.5555 21.9675 12.5 20.0857 12.5C18.2039 12.5 17.0429 13.5555 17.0429 15.1C17.0429 17.9313 18.1723 19.4714 20.0857 19.4714C20.7622 19.4714 21.2362 19.3392 21.6644 19.0944C21.783 19.0267 22.1656 18.7744 22.123 18.8014C22.3498 18.6581 22.523 18.5857 22.7429 18.5857C23.5694 18.5857 25.8981 20.7353 26.7329 22.405C27.4773 23.8937 27.6714 24.7674 27.6714 25.7286C27.6714 26.8436 24.0372 28 20.0857 28C16.1343 28 12.5 26.8436 12.5 25.7286C12.5 24.7674 12.6942 23.8937 13.4385 22.405C14.0648 21.1525 15.0015 20.0596 16.2429 19.1286C16.4638 18.9629 16.7772 19.0077 16.9429 19.2286C17.1085 19.4495 17.0638 19.7629 16.8429 19.9286C15.7223 20.769 14.8876 21.7428 14.3329 22.8522C13.6958 24.1264 13.5184 24.8402 13.5014 25.6003C13.5549 25.6454 13.6349 25.7008 13.7375 25.761C14.0433 25.9405 14.4913 26.1313 15.0337 26.3039C16.3961 26.7374 18.1378 27 20.0857 27C22.0337 27 23.7753 26.7374 25.1377 26.3039C25.6801 26.1313 26.1282 25.9405 26.434 25.761C26.5365 25.7008 26.6166 25.6454 26.67 25.6003C26.653 24.8402 26.4756 24.1264 25.8385 22.8522Z" fill="#7D34C8"/>
</svg>
