<?xml version="1.0" encoding="UTF-8"?>
<svg width="26px" height="26px" viewBox="0 0 26 26" version="1.1" xmlns="http://www.w3.org/2000/svg" xmlns:xlink="http://www.w3.org/1999/xlink">
    <!-- Generator: Sketch 43.2 (39069) - http://www.bohemiancoding.com/sketch -->
    <title>Download</title>
    <desc>Created with Sketch.</desc>
    <defs></defs>
    <g id="Page-1" stroke="none" stroke-width="1" fill="none" fill-rule="evenodd">
        <g id="Mobile-Refresh" transform="translate(-373.000000, -60.000000)" fill-rule="nonzero" fill="#FFFFFF">
            <path d="M384.5,73.732233 L384.5,61.5 C384.5,60.6715729 385.171573,60 386,60 C386.828427,60 387.5,60.6715729 387.5,61.5 L387.5,73.732233 L391.116117,70.1161165 C391.604272,69.6279612 392.395728,69.6279612 392.883883,70.1161165 C393.372039,70.6042719 393.372039,71.3957281 392.883883,71.8838835 L386.883883,77.8838835 C386.395728,78.3720388 385.604272,78.3720388 385.116117,77.8838835 L379.116117,71.8838835 C378.627961,71.3957281 378.627961,70.6042719 379.116117,70.1161165 C379.604272,69.6279612 380.395728,69.6279612 380.883883,70.1161165 L384.5,73.732233 Z M396,83 L396,76.5 C396,75.6715729 396.671573,75 397.5,75 C398.328427,75 399,75.6715729 399,76.5 L399,84.5 C399,85.3284271 398.328427,86 397.5,86 L374.5,86 C373.671573,86 373,85.3284271 373,84.5 L373,76.5 C373,75.6715729 373.671573,75 374.5,75 C375.328427,75 376,75.6715729 376,76.5 L376,83 L396,83 Z" id="Download"></path>
        </g>
    </g>
</svg>
