<svg width="24" height="24" viewBox="0 0 24 24" fill="none" xmlns="http://www.w3.org/2000/svg">
<path d="M1.1669 14.9091H2.04474V12.3721H4.51633V11.6193H2.04474V9.84658H4.77486V9.0909H1.1669V14.9091Z" fill="#CB11AB"/>
<path d="M10.9084 12C10.9084 10.1392 9.79474 9.01135 8.28906 9.01135C6.7777 9.01135 5.6669 10.1392 5.6669 12C5.6669 13.8579 6.7777 14.9886 8.28906 14.9886C9.79474 14.9886 10.9084 13.8608 10.9084 12ZM10.0391 12C10.0391 13.4176 9.28906 14.1875 8.28906 14.1875C7.28622 14.1875 6.53906 13.4176 6.53906 12C6.53906 10.5824 7.28622 9.81249 8.28906 9.81249C9.28906 9.81249 10.0391 10.5824 10.0391 12Z" fill="#CB11AB"/>
<path d="M17.0568 12C17.0568 10.1392 15.9432 9.01135 14.4375 9.01135C12.9261 9.01135 11.8153 10.1392 11.8153 12C11.8153 13.8579 12.9261 14.9886 14.4375 14.9886C15.9432 14.9886 17.0568 13.8608 17.0568 12ZM16.1875 12C16.1875 13.4176 15.4375 14.1875 14.4375 14.1875C13.4347 14.1875 12.6875 13.4176 12.6875 12C12.6875 10.5824 13.4347 9.81249 14.4375 9.81249C15.4375 9.81249 16.1875 10.5824 16.1875 12Z" fill="#CB11AB"/>
<path d="M20.0348 14.9091C21.8075 14.9091 22.8331 13.8096 22.8331 11.9915C22.8331 10.1818 21.8075 9.0909 20.0945 9.0909H18.1513V14.9091H20.0348ZM19.0291 14.142V9.85794H20.0405C21.3132 9.85794 21.9695 10.6193 21.9695 11.9915C21.9695 13.3693 21.3132 14.142 19.9865 14.142H19.0291Z" fill="#CB11AB"/>
</svg>
