<svg width="24" height="24" viewBox="0 0 24 24" fill="none" xmlns="http://www.w3.org/2000/svg">
<path fill-rule="evenodd" clip-rule="evenodd" d="M15.3139 13.7842C15.1303 13.5779 14.8142 13.5595 14.608 13.7431L13.6922 14.5581C12.4932 13.9859 11.4983 13.2591 10.7037 12.3775C9.92899 11.518 9.35731 10.6685 8.98617 9.83043L10.2312 8.61185C10.7949 8.06017 10.887 7.18576 10.4506 6.52878C10.1514 6.07832 9.8052 5.64542 9.4124 5.23015C8.77576 4.55707 8.10089 3.991 7.38783 3.53285C7.1555 3.38358 6.84616 3.45091 6.6969 3.68323C6.54763 3.91556 6.61496 4.2249 6.84728 4.37416C7.49065 4.78753 8.10352 5.3016 8.6859 5.91732C9.04002 6.2917 9.35048 6.67994 9.6176 7.08208C9.78836 7.33916 9.75233 7.68131 9.53177 7.89718L8.09922 9.29927C7.92197 9.47275 7.86639 9.73578 7.95853 9.96623C8.37007 10.9974 9.03863 12.0238 9.96091 13.047C10.9003 14.0892 12.0836 14.9317 13.5066 15.5744C13.7276 15.6742 13.9867 15.6347 14.1679 15.4734L15.2728 14.4901C15.4791 14.3065 15.4975 13.9904 15.3139 13.7842ZM6.03647 4.47887C5.87133 4.25755 5.55805 4.212 5.33672 4.37713C4.03018 5.35197 3.39449 6.36599 3.5139 7.42591C3.5534 7.77656 3.59291 8.04236 3.67952 8.44351C3.80953 9.04569 4.00024 9.68489 4.26606 10.3565C4.98714 12.1783 6.15101 13.9758 7.85681 15.657C10.5723 18.3333 13.8221 20.1369 15.6546 20.1369C16.6917 20.1369 17.9361 19.3466 19.4567 17.7992C20.0415 17.2041 20.0874 16.2652 19.5634 15.6159C19.2567 15.2358 18.9253 14.8645 18.5695 14.502C17.9575 13.8786 17.3313 13.3408 16.6907 12.8888C16.465 12.7296 16.1531 12.7835 15.9939 13.0091C15.8347 13.2347 15.8885 13.5467 16.1142 13.7059C16.7042 14.1222 17.2848 14.6209 17.8559 15.2026C18.1893 15.5422 18.499 15.8893 18.7852 16.2439C18.9903 16.498 18.9723 16.8654 18.7435 17.0982C17.397 18.4684 16.3444 19.1369 15.6546 19.1369C14.1367 19.1369 11.1051 17.4544 8.55876 14.9447C6.95461 13.3637 5.86697 11.684 5.19588 9.98847C4.95084 9.36938 4.77577 8.78258 4.657 8.23248C4.57874 7.87 4.54369 7.63419 4.50761 7.31397C4.43586 6.67701 4.88348 5.96298 5.93473 5.17862C6.15606 5.01348 6.20161 4.7002 6.03647 4.47887Z" fill="#F08022"/>
</svg>
