<svg width="24" height="24" viewBox="0 0 24 24" fill="none" xmlns="http://www.w3.org/2000/svg">
<path fill-rule="evenodd" clip-rule="evenodd" d="M21.3261 9.79514C21.258 9.71663 21.162 9.66773 21.0584 9.6588L14.8099 9.11999L12.3684 3.36808C12.2821 3.16473 12.0473 3.06985 11.8439 3.15617C11.7484 3.1967 11.6724 3.27276 11.6319 3.36828L9.18993 9.12999L2.94458 9.65984C2.72445 9.67852 2.56115 9.8721 2.57982 10.0922C2.58864 10.1961 2.63767 10.2925 2.71648 10.3607L7.45993 14.47L6.03529 20.5768C5.9851 20.7919 6.11882 21.007 6.33396 21.0572C6.43549 21.0809 6.54226 21.064 6.63153 21.0101L11.9999 17.77L17.3699 21.0111C17.559 21.1252 17.8049 21.0644 17.919 20.8753C17.9728 20.7862 17.9897 20.6796 17.9662 20.5783L16.5499 14.47L21.2862 10.3594C21.4531 10.2146 21.4709 9.96198 21.3261 9.79514ZM12.0006 5.06095L14.1245 10.0646L19.5602 10.5333L15.4398 14.1094L16.6715 19.4215L11.9999 16.602L7.33219 19.4192L8.5709 14.1094L4.44609 10.536L9.87533 10.0754L12.0006 5.06095Z" fill="#7D34C8"/>
</svg>
