<svg width="18" height="14" viewBox="0 0 18 14" fill="none" xmlns="http://www.w3.org/2000/svg">
<path fill-rule="evenodd" clip-rule="evenodd" d="M12.5 2.50006C12.7761 2.50006 13 2.72392 13 3.00006C13 3.2762 12.7761 3.50006 12.5 3.50006H4.5V1.70716L1.22851 4.97865L4.5 7.88664V6.50006H12.5V5.22274C12.5 4.89137 12.7686 4.62274 13.1 4.62274C13.2469 4.62274 13.3888 4.67667 13.4986 4.7743L17.7481 8.55161C17.9958 8.77176 18.0181 9.15101 17.7979 9.39868C17.774 9.42457 17.774 9.42457 17.7481 9.4485L13.4986 13.2258C13.2509 13.446 12.8717 13.4237 12.6516 13.176C12.5539 13.0662 12.5 12.9243 12.5 12.7774V11.5001H5.5C5.22385 11.5001 5 11.2762 5 11.0001C5 10.7239 5.22385 10.5001 5.5 10.5001H13.5V11.8866L16.7474 9.00006L13.5 6.11348V7.50006H5.5V8.77737C5.5 8.92432 5.44607 9.06616 5.34844 9.17599C5.12829 9.42366 4.74905 9.44597 4.50138 9.22582L0.247082 5.44422C-0.0128786 5.18573 -0.0128786 4.80583 0.221436 4.57151L4.47573 0.317215C4.58825 0.204694 4.74087 0.141479 4.9 0.141479C5.23137 0.141479 5.5 0.410109 5.5 0.74148V2.50006H12.5Z" fill="#7D34C8"/>
</svg>
