<svg width="36" height="36" viewBox="0 0 36 36" fill="none" xmlns="http://www.w3.org/2000/svg">
<rect width="36" height="36" rx="18" fill="white"/>
<rect width="36" height="36" rx="18" fill="#B8FFB8" fill-opacity="0.5"/>
<path fill-rule="evenodd" clip-rule="evenodd" d="M13.5482 13.9572C13.7316 14.1636 14.0477 14.1822 14.2541 13.9987L17.6678 10.9642C17.8573 10.7959 18.1427 10.7959 18.3322 10.9642L24.5026 16.449C24.5009 16.4658 24.5 16.4828 24.5 16.5V26H16V19.5H20V25C20 25.2761 20.2239 25.5 20.5 25.5C20.7761 25.5 21 25.2761 21 25V19.4C21 18.9029 20.5971 18.5 20.1 18.5H15.9C15.4029 18.5 15 18.9029 15 19.4V26.1C15 26.5971 15.4029 27 15.9 27H24.6C25.0971 27 25.5 26.5971 25.5 26.1V17.3356L26.6678 18.3737C26.8742 18.5572 27.1903 18.5386 27.3737 18.3322C27.5572 18.1258 27.5386 17.8098 27.3322 17.6263L18.9966 10.2168C18.4282 9.71166 17.5718 9.71166 17.0035 10.2168L13.5897 13.2513C13.3833 13.4348 13.3647 13.7508 13.5482 13.9572ZM13.003 15.1107L11.4972 16.4492L11.5 25.9999L14 26C14.2762 26 14.5 26.2239 14.5 26.5C14.5 26.7762 14.2761 27 14 27L11.4 26.9999C10.903 26.9999 10.5001 26.5971 10.5 26.1001L10.4975 17.3379L9.33219 18.3737C9.1258 18.5572 8.80976 18.5386 8.6263 18.3322C8.44284 18.1258 8.46143 17.8098 8.66782 17.6263L10.5837 15.9233C10.6301 15.8552 10.6929 15.7992 10.7664 15.7609L12.003 14.6617V11.4C12.003 10.9029 12.406 10.5 12.903 10.5H14C14.2761 10.5 14.5 10.7239 14.5 11C14.5 11.2761 14.2761 11.5 14 11.5H13.003V15.1107Z" fill="#3EAE3E"/>
</svg>
