<svg width="36" height="36" viewBox="0 0 36 36" fill="none" xmlns="http://www.w3.org/2000/svg">
<rect width="36" height="36" rx="18" fill="white"/>
<rect width="36" height="36" rx="18" fill="#FFB8B8" fill-opacity="0.5"/>
<path fill-rule="evenodd" clip-rule="evenodd" d="M13 9H23C23.5523 9 24 9.44772 24 10V26C24 26.5523 23.5523 27 23 27H13C12.4477 27 12 26.5523 12 26V10C12 9.44772 12.4477 9 13 9ZM13 22V26H23V13H14C13.7239 13 13.5 12.7761 13.5 12.5C13.5 12.2239 13.7239 12 14 12H23V10H13V21H22C22.2761 21 22.5 21.2239 22.5 21.5C22.5 21.7761 22.2761 22 22 22H13ZM17 24C17 24.5523 17.4477 25 18 25C18.5523 25 19 24.5523 19 24C19 23.4477 18.5523 23 18 23C17.4477 23 17 23.4477 17 24Z" fill="#DC5E5E"/>
</svg>
