<?xml version="1.0" encoding="UTF-8"?>
<svg width="1394px" height="169px" viewBox="0 0 1394 169" version="1.1" xmlns="http://www.w3.org/2000/svg" xmlns:xlink="http://www.w3.org/1999/xlink">
    <!-- Generator: Sketch 57.1 (83088) - https://sketch.com -->
    <title>Artboard</title>
    <desc>Created with Sketch.</desc>
    <g id="Artboard" stroke="none" stroke-width="1" fill="none" fill-rule="evenodd">
        <g id="LA_ZJ_NEG-05-07" fill="#FFFFFF" fill-rule="nonzero">
            <path d="M155.22,109.34 C130.517573,102.593685 105.036814,99.1173547 79.43,99 C79.43,95.41 79.43,91.8 79.43,88.2 L79.43,84.41 C88.058965,83.1282271 95.7989936,78.4012166 100.88,71.31 C110.289856,58.1012261 108.279699,39.9323341 96.21,29.1 C85.3047769,19.3044047 69.1240987,18.2108368 57,26.45 C49.062634,31.8103887 43.9610078,40.4600141 43.11,50 L43.11,50.52 C42.96,52.33 42.8,54.38 44.21,55.84 C45.0500804,56.7815336 46.2583397,57.3108315 47.52,57.29 C48.7111222,57.3092762 49.8589345,56.8436542 50.7,56 C51.92,54.9 51.99,53.3 52.05,51.89 C52.05,51.44 52.05,51 52.15,50.56 C53.0029305,41.9065086 58.6934624,34.4871094 66.83,31.42 C73.2372816,29.0081628 80.388072,29.5935967 86.3177498,33.0154585 C92.2474276,36.4373202 96.33227,42.3356757 97.45,49.09 C98.1432984,53.2840036 97.6407616,57.5884914 96,61.51 C93.0816775,68.5296742 86.8832446,73.6538618 79.44,75.2 C78.2018632,75.4381022 76.9489769,75.5917896 75.69,75.66 C75.19,75.66 74.69,75.73 74.2,75.78 C71.896492,76.1095506 70.2358177,78.1581515 70.39,80.48 C70.39,84.29 70.39,88.1 70.39,91.9 C70.39,94.28 70.39,96.65 70.39,99.02 L70.39,99.08 C46.8182428,99.6787601 23.4052027,103.123731 0.66,109.34 L0.44,109.4 L3,118.79 L3.22,118.73 C52.1339499,105.343247 103.74605,105.343247 152.66,118.73 L152.88,118.79 L155.45,109.4 L155.22,109.34 Z" id="Path"></path>
            <polygon id="Path" points="184 20.52 195.45 20.52 195.45 116.64 184 116.64"></polygon>
            <path d="M274.92,116.38 C272.407098,117.746586 269.567183,118.396895 266.71,118.26 C264.103451,118.402321 261.551158,117.478152 259.64,115.7 C257.89,114.01 257.01,111.25 257.01,107.5 C254.085108,111.108489 250.303528,113.927486 246.01,115.7 C241.709629,117.437815 237.107985,118.307845 232.47,118.26 C229.457012,118.277902 226.453632,117.918557 223.53,117.19 C220.868739,116.554403 218.364617,115.383999 216.17,113.75 C214.092953,112.137182 212.416113,110.066798 211.27,107.7 C209.991045,104.893749 209.368611,101.832879 209.45,98.75 C209.314266,95.4018348 210.000952,92.071406 211.45,89.05 C212.721545,86.6363076 214.548379,84.5592688 216.78,82.99 C219.08216,81.4083826 221.625,80.2095669 224.31,79.44 C227.159676,78.5581435 230.062095,77.8567534 233,77.34 C236.12,76.7 239.13,76.24 241.95,75.94 C244.472497,75.655216 246.971947,75.1940875 249.43,74.56 C251.305762,74.1198034 253.052386,73.2464915 254.53,72.01 C255.856571,70.7337111 256.551913,68.9368021 256.43,67.1 C256.542249,64.9818041 256.075553,62.8730266 255.08,61 C254.186714,59.5361967 252.924603,58.3327085 251.42,57.51 C249.865008,56.6758464 248.17038,56.1335655 246.42,55.91 C244.609634,55.6354163 242.78107,55.4983576 240.95,55.5 C236.748957,55.3447053 232.580546,56.2928552 228.86,58.25 C225.62,60.0833333 223.873333,63.57 223.62,68.71 L212.18,68.71 C212.225416,64.9219958 213.153306,61.1967392 214.89,57.83 C216.422774,54.9355631 218.640622,52.4602258 221.35,50.62 C224.161855,48.703898 227.315699,47.3459458 230.64,46.62 C234.248308,45.7961462 237.938859,45.3868305 241.64,45.3996921 C244.772192,45.3939905 247.900599,45.6179256 251,46.07 C253.948003,46.4702468 256.798106,47.4055959 259.41,48.83 C261.915117,50.2106942 264.004295,52.2377143 265.46,54.7 C267.105478,57.6996246 267.90074,61.0915884 267.76,64.51 L267.76,100.34 C267.705344,102.320258 267.85615,104.300847 268.21,106.25 C268.54,107.5 269.59,108.11 271.37,108.11 C272.567924,108.098269 273.755026,107.881818 274.88,107.47 L274.92,116.38 Z M256.36,80.71 C255.123224,81.5649555 253.750434,82.2040129 252.3,82.6 C250.69,83.03 248.98,83.4 247.19,83.74 C245.4,84.08 243.49,84.31 241.46,84.54 C239.43,84.77 237.46,85.06 235.6,85.39 C233.74,85.72 231.94,86.22 230.22,86.75 C228.62491,87.2378197 227.123761,87.9917752 225.78,88.98 C224.529237,89.9304204 223.504669,91.1462418 222.78,92.54 C221.950621,94.2156432 221.55194,96.0715735 221.62,97.94 C221.567999,99.6056645 221.968908,101.254228 222.78,102.71 C223.527889,103.979577 224.55353,105.063339 225.78,105.88 C227.073695,106.716973 228.511305,107.306935 230.02,107.62 C231.708579,107.984483 233.432635,108.158901 235.16,108.14 C238.448629,108.220734 241.724731,107.705772 244.83,106.62 C247.252695,105.735666 249.490491,104.409941 251.43,102.71 C253.027403,101.28258 254.311144,99.5391429 255.2,97.59 C255.965449,95.967547 256.384355,94.2033718 256.43,92.41 L256.36,80.71 Z" id="Shape"></path>
            <path d="M343.18,116.64 L332.41,116.64 L332.41,105.64 L332.14,105.64 C330.006187,109.653407 326.759675,112.965891 322.79,115.18 C318.700096,117.310503 314.140671,118.379871 309.53,118.29 C305.630887,118.410318 301.745546,117.771817 298.09,116.41 C295.227294,115.283245 292.68101,113.478197 290.67,111.15 C288.740327,108.825684 287.371649,106.088328 286.67,103.15 C285.878088,99.7748468 285.495335,96.3166385 285.53,92.85 L285.53,47 L297,47 L297,94.14 C297,98.45 298.24,101.84 300.76,104.35 C303.28,106.86 306.76,108.11 311.12,108.11 C314.230834,108.192035 317.326151,107.644402 320.22,106.5 C322.689909,105.513704 324.88537,103.946008 326.62,101.93 C328.358146,99.9090807 329.664888,97.5542215 330.46,95.01 C331.33366,92.1933252 331.76875,89.2589977 331.75,86.31 L331.75,47 L343.18,47 L343.18,116.64 Z" id="Path"></path>
            <path d="M360.41,47 L371.17,47 L371.17,58 L371.47,58 C373.596945,53.9849199 376.840878,50.671523 380.81,48.46 C384.892053,46.3190546 389.451834,45.252238 394.06,45.36 C397.963438,45.236692 401.853259,45.8787673 405.51,47.25 C408.378105,48.3469714 410.925666,50.1450472 412.92,52.48 C414.846072,54.8066643 416.214312,57.5431437 416.92,60.48 C417.70206,63.8602292 418.084678,67.320568 418.06,70.79 L418.06,116.55 L406.6,116.55 L406.6,69.53 C406.6,65.22 405.33,61.81 402.82,59.3 C400.31,56.79 396.82,55.53 392.46,55.53 C389.356933,55.4526606 386.269732,55.9966608 383.38,57.13 C380.931214,58.1489384 378.748635,59.7157425 377,61.71 C375.26611,63.7623898 373.963524,66.1430957 373.17,68.71 C372.287063,71.517453 371.855028,74.4471871 371.89,77.39 L371.89,116.69 L360.41,116.69 L360.41,47 Z" id="Path"></path>
            <path d="M497.47,116.64 L486,116.64 L486,107.21 L485.73,107.21 C483.917614,111.016684 480.76207,114.019081 476.87,115.64 C472.653572,117.418934 468.116057,118.310778 463.54,118.26 C458.681784,118.377691 453.862383,117.367945 449.46,115.31 C445.561066,113.439454 442.140787,110.70323 439.46,107.31 C436.755649,103.828138 434.72118,99.8744882 433.46,95.65 C432.097591,91.1094716 431.423435,86.3903818 431.46,81.65 C431.417905,76.9142326 432.068109,72.1977322 433.39,67.65 C434.60832,63.4716922 436.614339,59.5648771 439.3,56.14 C441.992406,52.7912778 445.41225,50.0998609 449.3,48.27 C453.663633,46.2613712 458.427454,45.2730408 463.23,45.38 C465.168899,45.3875975 467.103247,45.5683152 469.01,45.92 C471.140756,46.291006 473.223585,46.8980785 475.22,47.73 C477.307935,48.5884949 479.271943,49.7218349 481.06,51.1 C482.924945,52.5086938 484.500432,54.2641398 485.7,56.27 L486,56.27 L486,20.52 L497.46,20.52 L497.47,116.64 Z M443.59,82.46 C443.598123,85.664549 444.038768,88.8533384 444.9,91.94 C445.674442,94.911567 446.989729,97.7150252 448.78,100.21 C450.555156,102.639466 452.86897,104.624691 455.54,106.01 C458.530201,107.499336 461.840662,108.230797 465.18,108.14 C471.705957,108.425885 477.9121,105.301987 481.57,99.89 C483.317867,97.3411978 484.575966,94.4892801 485.28,91.48 C486.039669,88.3401771 486.419058,85.1204028 486.410158,81.89 C486.414428,78.5612552 486.018246,75.2440733 485.23,72.01 C484.48554,68.9882116 483.175819,66.1346486 481.37,63.6 C479.587839,61.1514654 477.259604,59.151923 474.57,57.76 C471.44191,56.1862232 467.969934,55.4196384 464.47,55.53 C461.033293,55.3978851 457.624285,56.1922842 454.6,57.83 C452.006932,59.274928 449.809045,61.3354469 448.2,63.83 C446.533024,66.4713834 445.344835,69.3860015 444.69,72.44 C443.959837,75.7300259 443.590986,79.0899248 443.59,82.46 L443.59,82.46 Z" id="Shape"></path>
            <path d="M514.7,47 L525.46,47 L525.46,61.71 L525.74,61.71 C528.51,56.05 531.93,51.88 535.96,49.19 C539.99,46.5 545.15,45.25 551.33,45.43 L551.33,57.54 C547.342834,57.4323796 543.370849,58.0734601 539.62,59.43 C536.574898,60.548463 533.877867,62.4488009 531.8,64.94 C529.730572,67.5525339 528.25934,70.5871648 527.49,73.83 C526.554301,77.716049 526.104199,81.7031498 526.15,85.7 L526.15,116.64 L514.7,116.64 L514.7,47 Z" id="Path"></path>
            <path d="M609.86,103.73 C609.86,104.73 609.86,105.73 609.97,106.73 C609.990762,107.633745 610.142336,108.529716 610.42,109.39 C610.648022,110.184842 611.124639,110.885749 611.78,111.39 C612.559146,111.942824 613.507581,112.204706 614.46,112.13 C615.719051,112.095266 616.973189,111.958147 618.21,111.72 L618.21,116.16 C617.532412,116.338873 616.84444,116.475799 616.15,116.57 C615.457323,116.663098 614.758875,116.706542 614.06,116.7 C612.381586,116.773917 610.706134,116.49808 609.14,115.89 C608.031535,115.45039 607.070869,114.704746 606.37,113.74 C605.72386,112.794192 605.290565,111.719484 605.1,110.59 C604.864251,109.269776 604.747118,107.931104 604.75,106.59 L604.75,102.98 L604.51,102.98 C603.641774,105.098053 602.454717,107.070861 600.99,108.83 C599.380926,110.731527 597.500785,112.385917 595.41,113.74 C593.10325,115.245042 590.576356,116.381976 587.92,117.11 C584.948747,117.940849 581.875103,118.348199 578.79,118.32 C575.731675,118.33641 572.681617,118.00087 569.7,117.32 C567.031959,116.718672 564.509864,115.593586 562.28,114.01 C560.153156,112.467039 558.461683,110.400067 557.37,108.01 C556.111098,105.11501 555.516547,101.974826 555.63,98.82 C555.480165,95.3615121 556.297421,91.9297292 557.99,88.91 C559.4659,86.4309413 561.525749,84.3504935 563.99,82.85 C566.531496,81.3466085 569.306389,80.2785618 572.2,79.69 C575.112219,79.0741964 578.056915,78.6234777 581.02,78.34 C586.76,78 591.23,77.55 594.42,77.06 C596.916926,76.8049085 599.332417,76.0281355 601.51,74.78 C602.933703,73.8654288 603.942448,72.4294924 604.32,70.78 C604.715809,68.5357626 604.893305,66.2584624 604.85,63.98 C604.771826,62.7985376 604.505122,61.6371925 604.06,60.54 C603.395893,58.8706271 602.414454,57.345831 601.17,56.05 C599.507591,54.3245246 597.505441,52.9625183 595.29,52.05 C592.213532,50.8299419 588.917432,50.2612967 585.61,50.38 C579.42,50.38 574.4,51.93 570.61,55.09 C566.82,58.25 564.7,62.81 564.36,68.81 L559.2,68.81 C559.58,61.19 562.036667,55.4766667 566.57,51.67 C571.103333,47.8633333 577.436667,45.9533333 585.57,45.9396498 C588.548958,45.9285115 591.522284,46.1997272 594.45,46.75 C597.178192,47.2191816 599.801922,48.1671099 602.2,49.55 C604.499335,50.8614489 606.42662,52.7371105 607.8,55 C609.269679,57.7184319 609.981196,60.7820976 609.86,63.87 L609.86,103.73 Z M604.75,77.34 C603.638249,78.588272 602.196055,79.4965772 600.59,79.96 C598.59326,80.5812881 596.539911,81.0033469 594.46,81.22 C592.2,81.5 589.77,81.74 587.25,81.89 C584.73,82.04 582.25,82.37 579.73,82.71 C573.61,83.43 568.93,84.99 565.65,87.35 C562.37,89.71 560.74,93.53 560.74,98.75 C560.660235,102.791496 562.29947,106.676954 565.25,109.44 C568.25,112.36 572.81,113.82 578.92,113.82 C584.74,113.82 589.37,112.82 592.78,110.67 C595.884702,108.844092 598.55077,106.358948 600.59,103.39 C602.249302,100.976551 603.411867,98.257099 604.01,95.39 C604.393112,93.6889684 604.640556,91.9602027 604.75,90.22 L604.75,77.34 Z" id="Shape"></path>
            <path d="M632.36,63.35 L632.79,63.35 C634.218909,58.9210829 636.870909,54.9864155 640.44,52 C642.686026,50.1589132 645.206575,48.681001 647.91,47.62 C651.104018,46.4164326 654.497281,45.8293981 657.91,45.89 C662.680274,45.7725788 667.411201,46.779742 671.72,48.83 C675.514379,50.7280976 678.827807,53.4636422 681.41,56.83 C684.033287,60.2880708 685.980672,64.2099809 687.15,68.39 C688.419487,72.9102817 689.055553,77.584864 689.04,82.28 C689.08613,87.1842112 688.450038,92.0710131 687.15,96.8 C686.010767,100.938579 684.055806,104.807703 681.4,108.18 C678.788646,111.395752 675.459509,113.954256 671.68,115.65 C667.322833,117.550268 662.601954,118.471914 657.85,118.35 C652.480924,118.4508 647.177744,117.155156 642.46,114.59 C637.96,112.06 634.67,108 632.6,102.32 L632.36,102.32 L632.36,141.5 L627.36,141.5 L627.36,47.5 L632.36,47.5 L632.36,63.35 Z M657.87,113.82 C661.91728,113.922529 665.928913,113.040587 669.56,111.25 C672.761706,109.627371 675.536528,107.273911 677.66,104.38 C679.835983,101.365927 681.436189,97.9756589 682.38,94.38 C683.436971,90.4071813 683.958252,86.3109218 683.93,82.2 C683.926851,78.2660624 683.426212,74.3483146 682.44,70.54 C681.517563,66.8935083 679.967792,63.4352859 677.86,60.32 C675.793178,57.3064699 673.054525,54.814296 669.86,53.04 C666.162525,51.1080496 662.029785,50.1609635 657.86,50.29 C653.779893,50.1803506 649.739229,51.1130764 646.12,53 C642.972374,54.7278619 640.270885,57.1657076 638.23,60.12 C636.151029,63.2181969 634.659557,66.672311 633.83,70.31 C632.938614,74.2169016 632.495752,78.2127258 632.509667,82.22 C632.499626,86.2234941 632.898364,90.2175707 633.7,94.14 C634.426379,97.7341917 635.827807,101.158019 637.83,104.23 C639.806145,107.184158 642.49586,109.591831 645.65,111.23 C649.446983,113.089121 653.645293,113.978943 657.87,113.82 Z" id="Shape"></path>
            <path d="M707.21,63.35 L707.62,63.35 C708.292503,61.3584077 709.195284,59.4521638 710.31,57.67 C711.663085,55.5104675 713.350805,53.5797164 715.31,51.95 C720.210369,47.8602951 726.429049,45.6890875 732.81,45.84 C737.576879,45.7245293 742.304112,46.7316355 746.61,48.78 C750.409327,50.6790954 753.729072,53.4142103 756.32,56.78 C758.918562,60.2300996 760.845358,64.1379676 762,68.3 C763.266108,72.820757 763.898808,77.4953307 763.88,82.19 C763.929257,87.0937364 763.296534,91.9805121 762,96.71 C760.880128,100.852138 758.930734,104.723709 756.27,108.09 C753.65062,111.301659 750.31931,113.859201 746.54,115.56 C742.183222,117.461516 737.462063,118.383218 732.71,118.26 C727.344298,118.359062 722.044783,117.063472 717.33,114.5 C712.82,111.97 709.54,107.91 707.48,102.23 L707.2,102.23 L707.2,141.41 L702.2,141.41 L702.2,47.41 L707.2,47.41 L707.21,63.35 Z M732.72,113.82 C736.769879,113.916202 740.783261,113.03463 744.42,111.25 C747.616509,109.63202 750.382559,107.277278 752.49,104.38 C754.684805,101.375742 756.289839,97.9824343 757.22,94.38 C758.283838,90.4081177 758.811849,86.3118272 758.79,82.2 C758.786851,78.2660624 758.286212,74.3483146 757.3,70.54 C756.383812,66.8878659 754.826294,63.427468 752.7,60.32 C750.63652,57.3035595 747.897108,54.8106954 744.7,53.04 C737.223136,49.3972895 728.489118,49.3825486 721,53 C717.850222,54.7248329 715.148092,57.1632564 713.11,60.12 C711.042465,63.2232296 709.555049,66.6757975 708.72,70.31 C707.816932,74.2152802 707.367295,78.2116857 707.379738,82.22 C707.371367,86.2229104 707.766703,90.2164752 708.56,94.14 C709.310183,97.7301952 710.717123,101.150923 712.71,104.23 C714.692412,107.175021 717.376345,109.580594 720.52,111.23 C724.311509,113.08431 728.502145,113.973962 732.72,113.82 L732.72,113.82 Z" id="Shape"></path>
            <path d="M943.56,77.19 L964.64,56.1 C964.85251,55.8880056 964.97194,55.60017 964.97194,55.3 C964.97194,54.99983 964.85251,54.7119944 964.64,54.5 L943.56,33.42 C943.34934,33.2049964 943.061005,33.0838367 942.76,33.0838367 C942.458995,33.0838367 942.17066,33.2049964 941.96,33.42 L920.87,54.5 C920.65749,54.7119944 920.53806,54.99983 920.53806,55.3 C920.53806,55.60017 920.65749,55.8880056 920.87,56.1 L942,77.19 C942.436596,77.6065087 943.123404,77.6065087 943.56,77.19 L943.56,77.19 Z" id="Path"></path>
            <path d="M898.87,118.9 L898.87,77 C898.869185,76.6765294 898.998994,76.3664291 899.23,76.14 L910.41,64.95 C910.637267,64.7203766 910.946925,64.5911757 911.27,64.5911757 C911.593075,64.5911757 911.902733,64.7203766 912.13,64.95 L933.13,85.95 C933.601736,86.422397 933.601736,87.187603 933.13,87.66 L901,119.75 C900.663551,120.145684 900.112111,120.282512 899.629716,120.090007 C899.14732,119.897502 898.84159,119.41861 898.87,118.9 Z" id="Path"></path>
            <path d="M985.57,118.9 L985.57,77 C985.570815,76.6765294 985.441006,76.3664291 985.21,76.14 L974,64.92 C973.772733,64.6903766 973.463075,64.5611757 973.14,64.5611757 C972.816925,64.5611757 972.507267,64.6903766 972.28,64.92 L951.28,85.92 C951.050971,86.1455489 950.922007,86.4535552 950.922007,86.775 C950.922007,87.0964448 951.050971,87.4044511 951.28,87.63 L983.43,119.78 C983.767409,120.190995 984.333601,120.333541 984.825397,120.131307 C985.317193,119.929073 985.619321,119.429461 985.57,118.9 Z" id="Path"></path>
            <path d="M1026.04998,109.64 L1026.04998,101.76 C1026.04817,101.458187 1026.15061,101.164998 1026.34,100.93 L1057.44,62.1 C1057.75878,61.7043411 1057.82636,61.1624214 1057.61451,60.7005929 C1057.40266,60.2387645 1056.94783,59.9364802 1056.44,59.92 L1028.53,59.92 C1027.7883,59.9200203 1027.18549,59.3216762 1027.18,58.58 L1027.18,49 C1027.18545,48.256683 1027.78668,47.6554458 1028.53,47.65 L1077.18,47.65 C1077.92168,47.655494 1078.52,48.2583034 1078.52,49 L1078.52,57 C1078.52,57.3045736 1078.418,57.6003722 1078.23,57.84 L1047.23,96.48 C1046.91325,96.8776206 1046.84672,97.419469 1047.05788,97.8819039 C1047.26904,98.3443388 1047.72207,98.648945 1048.23,98.67 L1077.06,98.67 C1077.50368,98.6690715 1077.91906,98.8878177 1078.16931,99.2541879 C1078.41956,99.6205581 1078.47224,100.087046 1078.31,100.5 L1074.57,110.12 C1074.37139,110.63767 1073.87446,110.98 1073.32,110.98 L1027.39,110.98 C1026.64994,110.98 1026.04998,110.380062 1026.04998,109.64 Z" id="Path"></path>
            <path d="M1106.12,47.69 L1117.56,47.69 C1118.28635,47.6950621 1118.8785,48.2739464 1118.9,49 L1118.9,109.6 C1118.9,110.340062 1118.30006,110.94 1117.56,110.94 L1106.12,110.94 C1105.37994,110.94 1104.78,110.340062 1104.78,109.6 L1104.78,49 C1104.8015,48.2739464 1105.39365,47.6950621 1106.12,47.69 Z" id="Path"></path>
            <path d="M1190.38,53.35 C1194.79333,57.1166667 1197,62.9133333 1197,70.74 C1197,78.5666667 1194.72,84.2833333 1190.16,87.89 C1185.6,91.51 1178.64333,93.3233333 1169.29,93.33 L1162.21,93.33 C1161.46994,93.33 1160.87,93.9299384 1160.87,94.67 L1160.87,109.67 C1160.87,110.410062 1160.27006,111.01 1159.53,111.01 L1148.09,111.01 C1147.34994,111.01 1146.75,110.410062 1146.75,109.67 L1146.75,49 C1146.75,48.2583034 1147.34832,47.655494 1148.09,47.65 L1169.09,47.65 C1178.85,47.6766667 1185.94667,49.5766667 1190.38,53.35 Z M1180,78.25 C1181.69,76.35 1182.54,73.58 1182.54,69.92 C1182.54,66.26 1181.44,63.67 1179.23,62.14 C1177.02,60.61 1173.61,59.83 1168.96,59.83 L1162.24,59.83 C1161.49994,59.83 1160.9,60.4299384 1160.9,61.17 L1160.9,79.76 C1160.9,80.5000616 1161.49994,81.1 1162.24,81.1 L1170.41,81.1 C1175.13,81.1 1178.32667,80.15 1180,78.25 Z" id="Shape"></path>
            <path d="M1219.34,58.48 L1219.34,49 C1219.33998,48.2583034 1219.93832,47.655494 1220.68,47.65 L1251,47.65 C1251.72599,47.6769068 1252.3005,48.2735132 1252.3,49 L1252.3,89 C1252.3,96.54 1250.35333,102.183333 1246.46,105.93 C1242.56667,109.676667 1237.56667,111.550108 1231.46,111.550108 C1224.27456,111.570433 1217.38602,108.685184 1212.36,103.55 C1211.88321,103.091405 1211.82315,102.349294 1212.22,101.82 L1217.95,93.89 C1218.17709,93.5791743 1218.52771,93.3819856 1218.91127,93.3493829 C1219.29483,93.3167802 1219.67371,93.4519618 1219.95,93.72 C1223.41667,97.0533333 1227.03667,98.72 1230.81,98.72 C1232.76886,98.7328162 1234.63551,97.8889876 1235.92,96.41 C1237.34,94.87 1238.05,92.56 1238.05,89.48 L1238.05,61.17 C1238.05,60.4299384 1237.45006,59.83 1236.71,59.83 L1220.65,59.83 C1219.92008,59.8083634 1219.33968,59.2102387 1219.34,58.48 Z" id="Path"></path>
            <path d="M1324.3,49.51 L1320.54,59.41 C1320.34464,59.9316058 1319.84699,60.2779741 1319.29,60.28 L1294.82,60.28 C1294.07994,60.28 1293.48,60.8799384 1293.48,61.62 L1293.48,72 C1293.48,72.7400616 1294.07994,73.34 1294.82,73.34 L1319.82,73.34 C1320.26368,73.3390715 1320.67906,73.5578177 1320.92931,73.9241879 C1321.17956,74.2905581 1321.23224,74.7570462 1321.07,75.17 L1317.36,84.53 C1317.15589,85.0419158 1316.6611,85.3783687 1316.11,85.38 L1294.8,85.38 C1294.05994,85.38 1293.46,85.9799384 1293.46,86.72 L1293.46,97.17 C1293.46,97.5253901 1293.60118,97.8662243 1293.85248,98.1175231 C1294.10378,98.3688218 1294.44461,98.51 1294.8,98.51 L1324,98.51 C1324.44103,98.5118096 1324.85338,98.7289372 1325.10442,99.0915552 C1325.35546,99.4541731 1325.41355,99.916555 1325.26,100.33 L1321.51,110.14 C1321.31098,110.663172 1320.80975,111.00926 1320.25,111.01 L1280.7,111.01 C1280.34461,111.01 1280.00378,110.868822 1279.75248,110.617523 C1279.50118,110.366224 1279.36,110.02539 1279.36,109.67 L1279.36,49 C1279.36,48.2583034 1279.95832,47.655494 1280.7,47.65 L1323,47.65 C1323.45841,47.6328657 1323.89415,47.8496863 1324.15695,48.2256825 C1324.41974,48.6016787 1324.47362,49.0853942 1324.3,49.51 Z" id="Path"></path>
            <path d="M1375.6,61.26 L1375.6,109.64 C1375.6,110.380062 1375.00006,110.98 1374.26,110.98 L1362.82,110.98 C1362.07994,110.98 1361.48,110.380062 1361.48,109.64 L1361.48,61.26 C1361.48001,60.9028705 1361.33746,60.560512 1361.08399,60.3089238 C1360.83053,60.0573356 1360.48712,59.9173349 1360.13,59.92 L1344.89,59.92 C1344.14994,59.92 1343.55,59.3200616 1343.55,58.58 L1343.55,49 C1343.55,48.2583034 1344.14832,47.655494 1344.89,47.65 L1392.19,47.65 C1392.93168,47.655494 1393.53,48.2583034 1393.53,49 L1393.53,58.54 C1393.53,59.2800616 1392.93006,59.88 1392.19,59.88 L1377,59.88 C1376.62728,59.863116 1376.26439,60.0023929 1375.99868,60.2643122 C1375.73296,60.5262314 1375.58848,60.8870743 1375.6,61.26 L1375.6,61.26 Z" id="Path"></path>
            <path d="M830.37,168.65 C829.541573,168.65 828.87,167.978427 828.87,167.15 L828.87,1.79 C828.87,0.961572875 829.541573,0.29 830.37,0.29 C831.198427,0.29 831.87,0.961572875 831.87,1.79 L831.87,167.15 C831.87,167.978427 831.198427,168.65 830.37,168.65 L830.37,168.65 Z" id="Path"></path>
        </g>
    </g>
</svg>
