<svg width="18" height="17" viewBox="0 0 18 17" fill="none" xmlns="http://www.w3.org/2000/svg">
<path d="M1.12488 15C1.12488 15.6328 1.61707 16.125 2.24988 16.125H7.87488V10.5H1.12488V15ZM10.1249 16.125H15.7499C16.3475 16.125 16.8749 15.6328 16.8749 15V10.5H10.1249V16.125ZM16.8749 4.875H15.3632C15.6093 4.45312 15.7499 3.99609 15.7499 3.46875C15.7499 1.78125 14.3436 0.375 12.6561 0.375C11.1796 0.375 10.2303 1.14844 9.03503 2.80078C7.80457 1.14844 6.85535 0.375 5.41394 0.375C3.69128 0.375 2.32019 1.78125 2.32019 3.46875C2.32019 3.99609 2.42566 4.45312 2.67175 4.875H1.12488C0.492065 4.875 -0.00012207 5.40234 -0.00012207 6V8.8125C-0.00012207 9.12891 0.245972 9.375 0.562378 9.375H17.4374C17.7186 9.375 17.9999 9.12891 17.9999 8.8125V6C17.9999 5.40234 17.4725 4.875 16.8749 4.875ZM5.37878 4.875C4.60535 4.875 3.97253 4.27734 3.97253 3.46875C3.97253 2.69531 4.60535 2.0625 5.37878 2.0625C6.08191 2.0625 6.60925 2.20312 8.43738 4.875H5.37878ZM12.6561 4.875H9.59753C11.4257 2.20312 11.9178 2.0625 12.6561 2.0625C13.4296 2.0625 14.0624 2.69531 14.0624 3.46875C14.0624 4.27734 13.4296 4.875 12.6561 4.875Z" fill="#808080"/>
</svg>
