<?xml version="1.0" encoding="UTF-8" standalone="no"?>
<svg width="22px" height="22px" viewBox="0 0 22 22" version="1.1" xmlns="http://www.w3.org/2000/svg" xmlns:xlink="http://www.w3.org/1999/xlink" xmlns:sketch="http://www.bohemiancoding.com/sketch/ns">
    <!-- Generator: sketchtool 3.5.2 (25235) - http://www.bohemiancoding.com/sketch -->
    <title>Add</title>
    <desc>Created with sketchtool.</desc>
    <defs></defs>
    <g id="Redesigned" stroke="none" stroke-width="1" fill="none" fill-rule="evenodd" sketch:type="MSPage">
        <g id="01-Items---Desktop-HD" sketch:type="MSArtboardGroup" transform="translate(-1038.000000, -475.000000)" fill="#38BAF1">
            <g id="Redesign" sketch:type="MSLayerGroup">
                <g id="Products---Prop-3" transform="translate(222.000000, 275.000000)" sketch:type="MSShapeGroup">
                    <g id="Column-2" transform="translate(456.000000, 0.000000)">
                        <g id="Shirts" transform="translate(0.000000, 133.000000)">
                            <g id="Quantity-Selector" transform="translate(292.000000, 67.000000)">
                                <path d="M78,10 L73,10 L73,12 L78,12 L78,17 L80,17 L80,12 L85,12 L85,10 L80,10 L80,5 L78,5 L78,10 Z M68,1.991155 C68,0.891470458 68.8896739,0 69.991155,0 L88.008845,0 C89.1085295,0 90,0.889673948 90,1.991155 L90,20.008845 C90,21.1085295 89.1103261,22 88.008845,22 L69.991155,22 C68.8914705,22 68,21.1103261 68,20.008845 L68,1.991155 Z" id="Add"></path>
                            </g>
                        </g>
                    </g>
                </g>
            </g>
        </g>
    </g>
</svg>
