<svg width="32" height="32" viewBox="0 0 32 32" fill="none" xmlns="http://www.w3.org/2000/svg">
<path fill-rule="evenodd" clip-rule="evenodd" d="M28.435 13.0603C28.3441 12.9556 28.2161 12.8904 28.078 12.8785L19.7467 12.1601L16.4914 4.49085C16.3763 4.21972 16.0632 4.09322 15.792 4.20831C15.6647 4.26235 15.5634 4.36376 15.5094 4.49112L12.2534 12.1734L3.92627 12.8799C3.63277 12.9048 3.41503 13.1629 3.43993 13.4564C3.45168 13.5949 3.51706 13.7234 3.62214 13.8144L9.94673 19.2934L8.04722 27.4358C7.9803 27.7227 8.15859 28.0095 8.44544 28.0764C8.58082 28.108 8.72318 28.0854 8.8422 28.0136L16.0001 23.6934L23.16 28.0148C23.4121 28.167 23.74 28.086 23.8922 27.8338C23.9639 27.715 23.9865 27.5729 23.9551 27.4378L22.0667 19.2934L28.3818 13.8126C28.6042 13.6196 28.6281 13.2827 28.435 13.0603ZM16.001 6.74801L18.8329 13.4195L26.0804 14.0445L20.5865 18.8126L22.2288 25.8954L16.0001 22.136L9.77642 25.8924L11.428 18.8126L5.92829 14.0481L13.1673 13.434L16.001 6.74801Z" fill="#7D34C8"/>
</svg>
