<svg width="37" height="37" viewBox="0 0 37 37" fill="none" xmlns="http://www.w3.org/2000/svg">
<path fill-rule="evenodd" clip-rule="evenodd" d="M5.41968 16.5309C5.41968 16.1218 5.75132 15.7902 6.16042 15.7902C6.56952 15.7902 6.90116 16.1218 6.90116 16.5309C6.90116 16.94 6.56952 17.2717 6.16042 17.2717C5.75132 17.2717 5.41968 16.94 5.41968 16.5309ZM6.90116 16.5309V11.9383C6.90116 11.6111 7.16647 11.3457 7.49375 11.3457H30.0123C30.3395 11.3457 30.6049 11.6111 30.6049 11.9383V25.568C30.6049 25.8952 30.3395 26.1606 30.0123 26.1606H7.49375C7.16647 26.1606 6.90116 25.8952 6.90116 25.568V16.5309ZM5.41968 11.9383V16.5309V25.568C5.41968 26.7134 6.34827 27.642 7.49375 27.642H30.0123C31.1577 27.642 32.0863 26.7134 32.0863 25.568V11.9383C32.0863 10.7929 31.1577 9.86426 30.0123 9.86426H7.49375C6.34827 9.86426 5.41968 10.7929 5.41968 11.9383ZM18.0123 14.3087H19.4937V18.0124H23.1975V19.4939H19.4937V23.1976H18.0123V19.4939H14.3086V18.0124H18.0123V14.3087Z" fill="#B05CE9"/>
</svg>
