<svg width="32" height="32" viewBox="0 0 32 32" fill="none" xmlns="http://www.w3.org/2000/svg">
<path fill-rule="evenodd" clip-rule="evenodd" d="M18.1106 17.7355L25.3333 11.5446V21.3333L21.0666 18.1333C20.772 17.9123 20.3542 17.972 20.1333 18.2666C19.9123 18.5611 19.972 18.979 20.2666 19.1999L24.7466 22.5599C24.9543 22.7157 25.2069 22.7999 25.4666 22.7999C26.1293 22.7999 26.6666 22.2627 26.6666 21.5999V11.3333C26.6666 10.2287 25.7712 9.33325 24.6666 9.33325H8.66658C8.2984 9.33325 7.99992 9.63173 7.99992 9.99992C7.99992 10.3681 8.2984 10.6666 8.66658 10.6666H24.3089L17.2428 16.7232C16.5133 17.3485 15.4422 17.3666 14.6919 16.7664L7.28289 10.8392C6.76537 10.4252 6.01022 10.5091 5.59621 11.0266C5.42599 11.2394 5.33325 11.5038 5.33325 11.7763V21.9999C5.33325 23.1045 6.22868 23.9999 7.33325 23.9999H23.3333C23.7014 23.9999 23.9999 23.7014 23.9999 23.3333C23.9999 22.9651 23.7014 22.6666 23.3333 22.6666H7.33325C7.26839 22.6666 7.2057 22.6573 7.14641 22.64L11.7333 19.1999C12.0278 18.979 12.0875 18.5611 11.8666 18.2666C11.6457 17.972 11.2278 17.9123 10.9333 18.1333L6.66659 21.3333V12.0537L13.8589 17.8076C15.1095 18.808 16.8947 18.7777 18.1106 17.7355Z" fill="#7D34C8"/>
</svg>
