<svg width="24" height="24" viewBox="0 0 24 24" fill="none" xmlns="http://www.w3.org/2000/svg">
<path fill-rule="evenodd" clip-rule="evenodd" d="M11.035 7.31448L10.677 8.7918C10.6119 9.06018 10.3416 9.225 10.0733 9.15995C9.80488 9.0949 9.64006 8.82461 9.70511 8.55624L10.0659 7.06823L10.5168 5.37227C10.575 5.15321 10.7733 5.00073 11 5.00073H13C13.2174 5.00073 13.4099 5.14125 13.4762 5.34834L17.4762 17.8477C17.4924 17.8983 17.5001 17.9496 17.5001 18.0001H19.5C19.7761 18.0001 20 18.224 20 18.5001C20 18.7762 19.7761 19.0001 19.5 19.0001H4.5C4.22386 19.0001 4 18.7762 4 18.5001C4 18.224 4.22386 18.0001 4.5 18.0001H6.49986C6.49987 17.9477 6.50818 17.8944 6.52566 17.842L9.02566 10.342C9.09679 10.1286 9.29784 9.9951 9.51154 10.0001H13.9149L12.635 6.00073H11.3844L11.035 7.31448ZM14.2349 11.0001H9.86038L8.86038 14.0001H15.195L14.2349 11.0001ZM7.52705 18.0001L8.52705 15.0001H15.515L16.475 18.0001H7.52705Z" fill="#7D34C8"/>
</svg>
