<svg width="24" height="24" viewBox="0 0 24 24" fill="none" xmlns="http://www.w3.org/2000/svg">
<path fill-rule="evenodd" clip-rule="evenodd" d="M15.5 7.5C15.7761 7.5 16 7.72385 16 8C16 8.27614 15.7761 8.5 15.5 8.5H7.49995V6.7071L4.22847 9.97859L7.49995 12.8866V11.5H15.5V10.2227C15.5 9.89131 15.7686 9.62268 16.1 9.62268C16.2469 9.62268 16.3887 9.67661 16.4986 9.77424L20.748 13.5516C20.9957 13.7717 21.018 14.1509 20.7979 14.3986C20.7739 14.4245 20.7739 14.4245 20.748 14.4484L16.4986 18.2258C16.2509 18.4459 15.8717 18.4236 15.6515 18.1759C15.5539 18.0661 15.5 17.9243 15.5 17.7773V16.5H8.49995C8.22381 16.5 7.99995 16.2761 7.99995 16C7.99995 15.7239 8.22381 15.5 8.49995 15.5H16.5V16.8866L19.7474 14L16.5 11.1134V12.5H8.49995V13.7773C8.49995 13.9243 8.44602 14.0661 8.3484 14.1759C8.12825 14.4236 7.749 14.4459 7.50133 14.2258L3.24704 10.4442C2.98708 10.1857 2.98708 9.80577 3.22139 9.57145L7.47569 5.31715C7.58821 5.20463 7.74082 5.14142 7.89995 5.14142C8.23132 5.14142 8.49995 5.41005 8.49995 5.74142V7.5H15.5Z" fill="#7D34C8"/>
</svg>
