<svg width="36" height="36" viewBox="0 0 36 36" fill="none" xmlns="http://www.w3.org/2000/svg">
<rect width="36" height="36" rx="18" fill="white"/>
<rect width="36" height="36" rx="18" fill="#CCFFFB"/>
<path fill-rule="evenodd" clip-rule="evenodd" d="M21.5 13.5C21.7762 13.5 22 13.7239 22 14C22 14.2761 21.7762 14.5 21.5 14.5H13.5V12.7071L10.2285 15.9786L13.5 18.8866V17.5H21.5V16.2227C21.5 15.8913 21.7686 15.6227 22.1 15.6227C22.247 15.6227 22.3888 15.6766 22.4986 15.7742L26.7481 19.5516C26.9958 19.7717 27.0181 20.1509 26.7979 20.3986C26.774 20.4245 26.774 20.4245 26.7481 20.4484L22.4986 24.2258C22.251 24.4459 21.8717 24.4236 21.6516 24.1759C21.5539 24.0661 21.5 23.9243 21.5 23.7773V22.5H14.5C14.2239 22.5 14 22.2761 14 22C14 21.7239 14.2239 21.5 14.5 21.5H22.5V22.8866L25.7474 20L22.5 17.1134V18.5H14.5V19.7773C14.5 19.9243 14.4461 20.0661 14.3485 20.1759C14.1283 20.4236 13.7491 20.4459 13.5014 20.2258L9.2471 16.4442C8.98714 16.1857 8.98714 15.8058 9.22145 15.5715L13.4757 11.3172C13.5883 11.2046 13.7409 11.1414 13.9 11.1414C14.2314 11.1414 14.5 11.41 14.5 11.7414V13.5H21.5Z" fill="#39C1B8"/>
</svg>
