<svg width="16" height="14" viewBox="0 0 16 14" fill="none" xmlns="http://www.w3.org/2000/svg">
<path fill-rule="evenodd" clip-rule="evenodd" d="M14.5 13C14.7761 13 15 12.7761 15 12.5V1.5C15 1.22386 14.7761 1 14.5 1H5.5C5.22386 1 5 1.22386 5 1.5L4.99786 11.5462C4.94369 12.1302 4.79045 12.6176 4.54421 13H14.5ZM2.5 14C1.02155 14 0.148805 13.1273 0 11.5V5.5C0 4.67157 0.671573 4 1.5 4H3C3.27614 4 3.5 4.22386 3.5 4.5C3.5 4.77614 3.27614 5 3 5H1.5C1.22386 5 1 5.22386 1 5.5L0.997862 11.4538C1.09857 12.5394 1.55915 13 2.5 13C3.44085 13 3.90143 12.5394 4 11.5V1.5C4 0.671573 4.67157 0 5.5 0H14.5C15.3284 0 16 0.671573 16 1.5V12.5C16 13.3284 15.3284 14 14.5 14H2.5ZM6.5 5C6.22386 5 6 4.77614 6 4.5C6 4.22386 6.22386 4 6.5 4H10.5C10.7761 4 11 4.22386 11 4.5C11 4.77614 10.7761 5 10.5 5H6.5ZM6.5 8C6.22386 8 6 7.77614 6 7.5C6 7.22386 6.22386 7 6.5 7H13.5C13.7761 7 14 7.22386 14 7.5C14 7.77614 13.7761 8 13.5 8H6.5ZM6.5 11C6.22386 11 6 10.7761 6 10.5C6 10.2239 6.22386 10 6.5 10H13.5C13.7761 10 14 10.2239 14 10.5C14 10.7761 13.7761 11 13.5 11H6.5Z" fill="#CB11AB"/>
</svg>
