<svg xmlns="http://www.w3.org/2000/svg" width="162" height="48" viewBox="0 0 162 48"><defs><linearGradient id="prefix__a" x1="61.008%" x2="26.538%" y1="4.954%" y2="71.833%"><stop offset="0%" stop-color="#00A0FF"/><stop offset=".657%" stop-color="#00A1FF"/><stop offset="26.01%" stop-color="#00BEFF"/><stop offset="51.22%" stop-color="#00D2FF"/><stop offset="76.04%" stop-color="#00DFFF"/><stop offset="100%" stop-color="#00E3FF"/></linearGradient><linearGradient id="prefix__b" x1="107.837%" x2="-130.947%" y1="50.017%" y2="50.017%"><stop offset="0%" stop-color="#FFE000"/><stop offset="40.87%" stop-color="#FFBD00"/><stop offset="77.54%" stop-color="orange"/><stop offset="100%" stop-color="#FF9C00"/></linearGradient><linearGradient id="prefix__c" x1="86.24%" x2="-50.309%" y1="30.893%" y2="136.186%"><stop offset="0%" stop-color="#FF3A44"/><stop offset="100%" stop-color="#C31162"/></linearGradient><linearGradient id="prefix__d" x1="-18.747%" x2="42.131%" y1="-11.829%" y2="35.097%"><stop offset="0%" stop-color="#32A071"/><stop offset="6.85%" stop-color="#2DA771"/><stop offset="47.62%" stop-color="#15CF74"/><stop offset="80.09%" stop-color="#06E775"/><stop offset="100%" stop-color="#00F076"/></linearGradient></defs><g fill="none"><path fill="#000001" stroke="#B7B7B7" d="M152.84.5H9.123c-.671 0-1.59.031-2.473.193-.766.127-1.49.313-2.145.627a6.964 6.964 0 00-1.822 1.223 6.24 6.24 0 00-1.29 1.61c-.34.59-.54 1.203-.643 1.92a14.26 14.26 0 00-.218 2.325c-.026.192-.03.719-.032.951v29.123c.007.147.037.888.037 1.133 0 .607.033 1.437.21 2.248.136.711.337 1.33.676 1.918.338.587.742 1.145 1.296 1.62a6.827 6.827 0 001.776 1.185 7.61 7.61 0 002.143.664c.804.122 1.643.157 2.497.194h1.235l139.758.067h2.748c.744 0 1.63-.065 2.48-.194.828-.157 1.52-.344 2.177-.66.647-.31 1.262-.68 1.785-1.19a6.82 6.82 0 001.296-1.62c.336-.612.539-1.235.675-1.95.137-.75.173-1.504.211-2.26V8.407a17.639 17.639 0 00-.248-2.297c-.135-.707-.336-1.327-.675-1.914a6.413 6.413 0 00-1.296-1.654 7.492 7.492 0 00-1.785-1.19 8.254 8.254 0 00-2.17-.658c-.884-.13-1.81-.195-2.487-.195z"/><g fill="#FFF"><path d="M81.512 26.112c-2.816 0-5.12 2.144-5.12 5.088s2.304 5.088 5.12 5.088c2.816 0 5.12-2.176 5.12-5.088 0-2.944-2.304-5.088-5.12-5.088zm0 8.192c-1.536 0-2.88-1.28-2.88-3.104s1.344-3.104 2.88-3.104c1.536 0 2.88 1.248 2.88 3.104 0 1.824-1.344 3.104-2.88 3.104zm-11.168-8.192c-2.816 0-5.12 2.144-5.12 5.088s2.304 5.088 5.12 5.088c2.816 0 5.12-2.176 5.12-5.088 0-2.944-2.304-5.088-5.12-5.088zm0 8.192c-1.536 0-2.88-1.28-2.88-3.104s1.344-3.104 2.88-3.104c1.536 0 2.88 1.248 2.88 3.104 0 1.824-1.344 3.104-2.88 3.104zM57.032 27.68v2.176h5.184c-.16 1.216-.576 2.112-1.184 2.72-.768.768-1.92 1.6-4 1.6-3.2 0-5.696-2.56-5.696-5.76 0-3.2 2.496-5.76 5.696-5.76 1.728 0 2.976.672 3.904 1.536l1.536-1.536c-1.28-1.248-3.008-2.176-5.44-2.176-4.384 0-8.032 3.552-8.032 7.936s3.68 7.936 8.032 7.936c2.368 0 4.128-.768 5.536-2.208 1.44-1.44 1.888-3.456 1.888-5.056 0-.512-.032-.96-.128-1.344h-7.296v-.064zm54.368 1.664c-.416-1.152-1.728-3.232-4.384-3.232-2.624 0-4.8 2.08-4.8 5.088 0 2.848 2.176 5.088 5.056 5.088 2.336 0 3.68-1.44 4.256-2.272l-1.728-1.152c-.576.864-1.376 1.408-2.528 1.408-1.152 0-1.952-.512-2.464-1.536l6.816-2.816-.224-.576zm-6.944 1.696c-.064-1.984 1.536-2.976 2.656-2.976.896 0 1.632.448 1.888 1.088l-4.544 1.888zM98.92 36h2.24V20.992h-2.24V36zm-3.68-8.768h-.064c-.512-.608-1.472-1.152-2.688-1.152-2.56 0-4.896 2.24-4.896 5.12 0 2.848 2.336 5.088 4.896 5.088 1.216 0 2.176-.544 2.688-1.152h.064v.736c0 1.952-1.056 3.008-2.72 3.008-1.376 0-2.208-.992-2.56-1.824l-1.952.8c.576 1.344 2.048 3.008 4.512 3.008 2.624 0 4.864-1.536 4.864-5.312V26.4h-2.112v.832h-.032zm-2.592 7.072c-1.536 0-2.848-1.28-2.848-3.072s1.28-3.104 2.848-3.104c1.536 0 2.72 1.312 2.72 3.104.032 1.76-1.184 3.072-2.72 3.072zm29.28-13.312h-5.376V36h2.24v-5.696h3.136c2.496 0 4.928-1.792 4.928-4.672-.032-2.848-2.464-4.64-4.928-4.64zm.064 7.232h-3.2v-5.152h3.2c1.664 0 2.624 1.376 2.624 2.56 0 1.184-.96 2.592-2.624 2.592zm13.824-2.144c-1.632 0-3.296.704-4 2.304l1.984.832c.416-.832 1.216-1.088 2.048-1.088 1.152 0 2.336.704 2.368 1.92v.16a5.116 5.116 0 00-2.336-.576c-2.144 0-4.32 1.184-4.32 3.392 0 2.016 1.76 3.296 3.712 3.296 1.504 0 2.336-.672 2.848-1.472h.064V36h2.176v-5.76c0-2.688-1.984-4.16-4.544-4.16zm-.288 8.224c-.736 0-1.76-.352-1.76-1.28 0-1.152 1.28-1.6 2.368-1.6.992 0 1.44.224 2.048.512a2.69 2.69 0 01-2.656 2.368zm12.704-7.904l-2.56 6.496h-.064l-2.656-6.496h-2.4l4 9.088-2.272 5.056h2.336L150.76 26.4h-2.528zm-20.16 9.6h2.24V20.992h-2.24V36z"/><path stroke="#FFF" stroke-width=".5" d="M85.416 8.256c1.056 0 1.92.352 2.624 1.088.704.736 1.056 1.632 1.056 2.656.032 1.056-.32 1.952-1.024 2.656-.704.736-1.6 1.088-2.656 1.088s-1.92-.352-2.624-1.088c-.704-.736-1.056-1.632-1.056-2.656 0-1.024.352-1.952 1.056-2.656.704-.736 1.6-1.088 2.624-1.088zm6.144.16l3.488 5.6h.032l-.032-1.376V8.416h.928v7.2h-.96l-3.648-5.888h-.032l.032 1.376v4.48h-.928V8.416h1.12zm-6.112.704c-.768 0-1.408.256-1.952.8s-.8 1.216-.8 2.08c0 .832.256 1.536.8 2.08s1.184.8 1.952.8 1.408-.256 1.952-.8.8-1.216.8-2.08c0-.832-.256-1.536-.8-2.08s-1.184-.8-1.952-.8zm-12.832-.704v7.2h-.928v-7.2h.928zm6.112-.032v.896h-2.016v6.336h-.928V9.28h-2.016v-.896h4.96zm-25.632-.192c.512 0 1.024.096 1.472.288.48.192.832.48 1.12.8l-.64.64c-.48-.576-1.12-.864-1.984-.864-.768 0-1.408.256-1.952.8s-.832 1.216-.832 2.08c0 .864.288 1.536.832 2.08s1.216.8 1.952.8c.8 0 1.472-.256 2.016-.8.352-.352.544-.832.608-1.472h-2.624v-.864h3.488c.096.256.096.448.096.608 0 .992-.288 1.792-.896 2.4-.672.704-1.568 1.056-2.656 1.056-1.024 0-1.92-.352-2.656-1.088-.736-.736-1.088-1.6-1.088-2.688 0-1.056.352-1.952 1.088-2.688.736-.736 1.6-1.088 2.656-1.088zm9.088.224v.864H58.92v2.272h2.944v.864H58.92v2.304h3.264v.896h-4.192v-7.2h4.192zm5.92-.032v.896h-2.016v6.336h-.928V9.28h-2.016v-.896h4.96z"/></g><path fill="url(#prefix__a)" d="M.672.736C.32 1.12.128 1.664.128 2.432V28.96c0 .736.192 1.312.544 1.696l.096.096 14.88-14.88v-.352L.768.64.672.736z" transform="translate(12 8)"/><path fill="url(#prefix__b)" d="M20.608 20.8l-4.96-4.928v-.352l4.96-4.96.096.064 5.856 3.328c1.664.96 1.664 2.496 0 3.456l-5.856 3.328-.096.064z" transform="translate(12 8)"/><path fill="url(#prefix__c)" d="M20.704 20.736l-5.056-5.056L.704 30.624c.544.576 1.472.672 2.496.064l17.504-9.952" transform="translate(12 8)"/><path fill="url(#prefix__d)" d="M20.704 10.624L3.168.64C2.144.064 1.216.128.672.704L15.648 15.68l5.056-5.056z" transform="translate(12 8)"/><path fill="#000" d="M32.608 28.64L15.2 38.528c-.96.544-1.856.512-2.4 0l-.096.096.096.096c.544.512 1.44.544 2.4 0l17.536-9.952-.128-.128z" opacity=".2"/><path fill="#000" d="M12.672 38.464c-.352-.384-.544-.928-.544-1.696v.16c0 .736.192 1.312.544 1.696l.096-.096-.096-.064zm25.92-13.216l-5.984 3.392.096.096 5.856-3.328c.832-.48 1.248-1.12 1.248-1.728-.032.576-.48 1.12-1.216 1.568z" opacity=".12"/><path fill="#FFF" d="M15.168 8.832l23.392 13.28c.768.416 1.184.992 1.248 1.568 0-.64-.416-1.248-1.248-1.728L15.168 8.64c-1.664-.96-3.04-.16-3.04 1.76v.16c0-1.888 1.376-2.688 3.04-1.728z" opacity=".25"/></g></svg>
