<svg xmlns="http://www.w3.org/2000/svg" width="64" height="12" viewBox="0 0 64 12"><path fill="#FFF" fill-rule="evenodd" d="M58.435.005C61.5.005 64 2.694 64 6.003 64 9.31 61.501 12 58.435 12c-3.066 0-5.565-2.689-5.565-5.997 0-3.309 2.499-5.998 5.565-5.998zM46.454 0c2.21 0 4.12 1.395 5.019 3.41a.171.171 0 01-.086.225l-1.348.641a.21.21 0 01-.278-.107c-.605-1.357-1.857-2.293-3.307-2.293-2.04 0-3.693 1.85-3.693 4.121 0 2.272 1.66 4.121 3.693 4.121 1.359 0 2.547-.823 3.189-2.047a.209.209 0 01.273-.09l1.348.64c.091.044.123.15.08.236-.941 1.865-2.782 3.138-4.89 3.138-3.067 0-5.566-2.689-5.566-5.998 0-3.308 2.5-5.997 5.566-5.997zM22.282 0c2.21 0 4.12 1.395 5.02 3.41a.171.171 0 01-.086.225l-1.348.641a.215.215 0 01-.279-.107c-.604-1.357-1.862-2.293-3.307-2.293-2.039 0-3.692 1.85-3.692 4.121 0 2.272 1.659 4.121 3.692 4.121 1.36 0 2.547-.823 3.19-2.047a.207.207 0 01.272-.09l1.349.64c.09.044.123.15.08.236-.942 1.865-2.782 3.138-4.89 3.138-3.067 0-5.566-2.689-5.566-5.998C16.717 2.69 19.211 0 22.282 0zm10.376.021c1.204 0 2.419.711 2.943 1.732.471.914.364 1.978-.3 2.913-.385.546-.957.914-1.573 1.224.177.177.359.359.546.54.75.738 1.51 1.492 2.21 2.138.493-.668.814-1.555.851-2.683a.211.211 0 01.209-.203h1.46a.21.21 0 01.21.208v.006c-.043 1.603-.53 2.902-1.285 3.886 0 0 .005.005.01.005.204.144.787.225 1.232.24.112 0 .198.091.203.204l.048 1.459a.21.21 0 01-.203.214h-.011c-.514-.006-1.653-.075-2.37-.594a7.942 7.942 0 01-.31-.235 5.948 5.948 0 01-3.153.909c-3.103 0-4.505-2.138-4.505-3.656 0-1.433.738-2.304 1.632-2.908-1.044-.914-1.434-2.266-.996-3.453C29.961.748 31.138.021 32.658.021zm-26.9.091c.118 0 .225.054.294.145l4.672 5.922 1.958 2.475c.027.032.07.053.113.053.08 0 .139-.064.139-.139V.326c0-.118.09-.208.208-.208h1.402c.118 0 .21.09.21.208v11.359a.206.206 0 01-.21.208h-1.428a.369.369 0 01-.295-.144l-4.029-5.1-2.6-3.292a.143.143 0 00-.108-.054.142.142 0 00-.139.14v8.236l-.008.057a.208.208 0 01-.2.152H4.333l-.056-.008a.208.208 0 01-.152-.2V.32l.007-.056a.21.21 0 01.201-.152zM1.605.118c.118 0 .209.09.209.208v11.359c0 .117-.09.208-.209.208H.21a.205.205 0 01-.209-.208V.326A.204.204 0 01.209.118h1.396zm56.83 1.764c-2.034 0-3.693 1.849-3.693 4.12 0 2.272 1.654 4.122 3.693 4.122s3.692-1.85 3.692-4.121c0-2.272-1.659-4.121-3.692-4.121zM31.93 6.74c-.802.439-1.188.86-1.188 1.582 0 .562.664 1.786 2.628 1.786.567 0 1.129-.123 1.648-.358a99.174 99.174 0 01-2.06-2c-.353-.347-.696-.689-1.028-1.01zm.734-4.853c-.718 0-1.226.262-1.392.721-.166.46.022 1.01.482 1.406.171.145.348.305.535.476.626-.283 1.247-.577 1.493-.914.385-.54.22-.866.16-.968-.208-.406-.77-.721-1.278-.721z"/></svg>
