<svg xmlns="http://www.w3.org/2000/svg" width="152" height="24" viewBox="0 0 152 24"><path fill="#FFF" fill-rule="evenodd" d="M15.716 15.595v-2.912c1.733-.243 3.253-1.214 4.287-2.61a6.33 6.33 0 00-.943-8.374C18.027.79 16.75.212 15.382.091a6.338 6.338 0 00-6.87 5.765v.121c-.091.364 0 .759.213 1.062a.76.76 0 00.668.273c.244 0 .487-.09.639-.273.213-.212.304-.516.273-.819v-.273a4.545 4.545 0 013.8-4.035 5.061 5.061 0 011.794.06c.03 0 .03 0 .06.03.122.03.213.061.335.092a4.616 4.616 0 013.07 3.823c0 .09.03.182.03.273v.242c0 .577-.12 1.184-.334 1.73a4.59 4.59 0 01-3.283 2.73 3.05 3.05 0 01-.76.092h-.304c-.456.06-.76.485-.73.94v3.762c-4.68.122-9.362.79-13.892 2.033H0l.517 1.882h.06a56.29 56.29 0 0129.761 0h.061l.517-1.882h-.06c-4.986-1.426-10.063-2.093-15.14-2.124zM9.91 6.918zM36.54 0h2.28v19.085h-2.28V0zm16.75 16.991a7.456 7.456 0 01-.091-1.153v-7.1a3.672 3.672 0 00-.456-1.942 3.18 3.18 0 00-1.216-1.153 4.78 4.78 0 00-1.672-.576A12.702 12.702 0 0048 4.946c-.73 0-1.459.09-2.188.242-.67.152-1.308.395-1.855.79a3.835 3.835 0 00-1.276 1.425 5.258 5.258 0 00-.548 2.155h2.28c-.06-.82.365-1.609 1.064-2.064a4.746 4.746 0 012.402-.546c.365 0 .73.03 1.094.091.335.03.669.152.973.304.304.151.547.394.73.697.212.365.304.79.273 1.214.03.364-.121.728-.365.971a2.631 2.631 0 01-1.003.516 11.85 11.85 0 01-1.49.273c-.547.06-1.155.152-1.793.273-.578.091-1.155.243-1.733.425a5.14 5.14 0 00-1.49.698c-.455.303-.82.728-1.063 1.213a3.911 3.911 0 00-.395 1.942c-.03.607.121 1.214.364 1.79.213.486.548.91.973 1.244.426.334.942.546 1.46.698.577.06 1.185.121 1.793.121.912 0 1.854-.151 2.705-.515.852-.364 1.612-.91 2.19-1.639a2.372 2.372 0 00.516 1.608c.395.364.881.546 1.398.516a3.1 3.1 0 001.642-.364v-1.73a2.993 2.993 0 01-.73.092c-.273.03-.517-.122-.638-.395zm-2.34-2.73c0 .364-.092.697-.244 1.031a3.148 3.148 0 01-.76 1.032c-.395.333-.82.606-1.307.789-.608.212-1.277.333-1.915.303-.335 0-.7-.03-1.034-.091a2.319 2.319 0 01-.851-.364 1.685 1.685 0 01-.578-.637 2.064 2.064 0 01-.243-.94c0-.365.06-.73.243-1.063a2.16 2.16 0 01.578-.698c.273-.182.577-.333.881-.455.335-.09.7-.212 1.064-.273.365-.06.73-.121 1.156-.182.425-.06.79-.091 1.155-.152.365-.06.699-.151 1.003-.212.304-.091.578-.212.82-.364v2.275h.031zm15.016-9.012h2.25v13.836h-2.128V16.9h-.06a4.61 4.61 0 01-1.855 1.881 5.38 5.38 0 01-2.645.607c-.79.03-1.55-.09-2.28-.364-.577-.212-1.064-.576-1.49-1.032-.395-.455-.638-1-.79-1.577-.152-.668-.243-1.366-.213-2.033V5.279h2.28v9.376c-.03.758.213 1.487.73 2.033a2.863 2.863 0 002.067.758c.608 0 1.246-.09 1.824-.333a3.208 3.208 0 001.277-.91c.334-.395.608-.88.76-1.366a5.573 5.573 0 00.273-1.73V5.25zM82.9 7.95c.152.668.243 1.366.212 2.033v9.103h-2.25V9.709a2.783 2.783 0 00-.759-2.033c-.547-.515-1.307-.819-2.067-.758a4.464 4.464 0 00-1.794.303 3.807 3.807 0 00-1.277.91c-.334.395-.607.88-.76 1.366a4.788 4.788 0 00-.243 1.73v7.827h-2.25V5.25h2.129v2.185h.06a4.87 4.87 0 011.855-1.912 5.377 5.377 0 012.645-.607c.79-.03 1.55.091 2.28.364a3.574 3.574 0 011.459 1.032c.365.485.638 1.032.76 1.638zM96.609 0v7.1h-.061c-.243-.395-.547-.759-.912-1.032s-.73-.485-1.155-.667a8.377 8.377 0 00-1.247-.364c-.395-.061-.76-.122-1.155-.122a6.205 6.205 0 00-2.766.577c-.76.364-1.46.91-1.976 1.547a7.151 7.151 0 00-1.155 2.306 9.46 9.46 0 00-.395 2.761c0 .94.121 1.881.395 2.792.243.85.669 1.608 1.185 2.306a5.558 5.558 0 001.976 1.577 6.337 6.337 0 002.797.577c.912 0 1.824-.152 2.645-.516a3.382 3.382 0 001.763-1.669h.06v1.881h2.28V0h-2.28zm-.091 14.078a5.498 5.498 0 01-.73 1.67c-.73 1.061-1.976 1.698-3.253 1.638a3.855 3.855 0 01-1.915-.425c-.517-.273-1.003-.668-1.337-1.153-.365-.486-.608-1.062-.76-1.639-.183-.606-.244-1.244-.274-1.88 0-.668.091-1.305.213-1.973a5.317 5.317 0 01.699-1.73c.334-.485.76-.91 1.277-1.213a3.712 3.712 0 011.976-.455 3.83 3.83 0 012.006.455 3.525 3.525 0 011.338 1.153c.364.516.608 1.062.76 1.669.152.637.243 1.304.243 1.972 0 .667-.091 1.305-.243 1.911zm10.122-8.404a5.385 5.385 0 013.07-.759v2.397c-.79-.03-1.58.122-2.31.364a3.532 3.532 0 00-1.55 1.093 4.3 4.3 0 00-.851 1.76 10.292 10.292 0 00-.274 2.366v6.16h-2.28V5.248h2.098v2.913h.06a5.982 5.982 0 012.037-2.488zm15.048 12.349a.921.921 0 01-.273-.395 1.675 1.675 0 01-.092-.515V8.586a3.562 3.562 0 00-.395-1.76 3.14 3.14 0 00-1.094-1.091c-.487-.274-1.003-.486-1.55-.577-.578-.121-1.186-.152-1.764-.152-1.368-.09-2.705.334-3.8 1.153-.942.88-1.49 2.124-1.459 3.399h1.034c0-1.032.456-2.033 1.246-2.731a4.427 4.427 0 012.98-.94 4.542 4.542 0 011.914.333c.426.182.821.455 1.156.789.243.273.456.546.577.88.091.212.152.455.152.667 0 .455-.03.91-.091 1.366a1.268 1.268 0 01-.578.788 3.762 3.762 0 01-1.428.456c-.639.09-1.52.182-2.676.242-.577.061-1.155.152-1.732.273a5.43 5.43 0 00-1.642.638 3.572 3.572 0 00-1.216 1.213 3.713 3.713 0 00-.456 1.972 4.12 4.12 0 00.335 1.82c.212.486.547.88.972 1.184.456.304.943.546 1.49.668.608.121 1.185.212 1.793.182.608 0 1.216-.091 1.824-.243a5.489 5.489 0 001.49-.667c.395-.274.76-.607 1.094-.971.304-.334.517-.729.7-1.153h.06v.667c0 .273.03.546.061.789.03.212.122.425.243.637.152.182.335.334.578.425.304.121.638.182.973.152h.425c.152-.03.274-.03.395-.091v-.88c-.243.06-.486.06-.73.09-.151.061-.333 0-.516-.09zm-1.368-4.187c-.03.333-.06.698-.152 1.031-.121.577-.395 1.093-.73 1.578a5.075 5.075 0 01-1.55 1.456 5.455 5.455 0 01-2.766.638 3.665 3.665 0 01-2.706-.88 2.962 2.962 0 01-.912-2.124 2.64 2.64 0 011.004-2.276 5.752 5.752 0 012.796-.91c.517-.06 1.003-.121 1.49-.152.517-.03.973-.06 1.429-.121.425-.03.82-.122 1.216-.243.304-.09.608-.273.82-.516v2.519h.061zm15.26-6.706a5.629 5.629 0 00-1.915-1.578 6.085 6.085 0 00-2.736-.576c-.668 0-1.367.091-2.006.334a5.684 5.684 0 00-1.49.88 5.16 5.16 0 00-1.003 1.153 5.574 5.574 0 00-.516 1.153h-.092V5.34h-1.003V24h1.003v-7.828h.061a4.345 4.345 0 001.976 2.427c.943.516 2.007.759 3.07.759a6.278 6.278 0 002.767-.546 5.21 5.21 0 001.945-1.487c.548-.668.912-1.426 1.156-2.245.243-.94.395-1.912.364-2.883 0-.94-.121-1.85-.364-2.76a8.82 8.82 0 00-1.216-2.307zm.183 7.525a5.209 5.209 0 01-.973 1.972 4.65 4.65 0 01-1.611 1.365c-.73.365-1.52.516-2.31.516a5.366 5.366 0 01-2.463-.516c-.638-.333-1.155-.788-1.55-1.395s-.669-1.305-.82-2.003a12.428 12.428 0 01-.244-2.366c0-.79.091-1.578.274-2.367.152-.728.456-1.396.881-2.033a4.785 4.785 0 011.58-1.426 5.358 5.358 0 014.713 0c.638.364 1.185.85 1.611 1.456.426.607.73 1.305.912 2.033a9.039 9.039 0 010 4.764zm15.868-5.219a7.141 7.141 0 00-1.155-2.306 5.467 5.467 0 00-1.945-1.578 6.093 6.093 0 00-2.736-.576 5.15 5.15 0 00-3.466 1.214c-.395.333-.73.728-1.003 1.153a7.95 7.95 0 00-.547 1.153h-.121V5.34h-1.004V24h1.003v-7.828h.061a4.34 4.34 0 001.976 2.427c.942.516 2.006.759 3.07.759a6.278 6.278 0 002.767-.546 5.218 5.218 0 001.945-1.487 5.858 5.858 0 001.155-2.245c.244-.94.396-1.912.365-2.883 0-.94-.121-1.85-.365-2.76zm-.972 5.219a6.056 6.056 0 01-.943 2.002 4.663 4.663 0 01-1.611 1.366c-.73.364-1.52.516-2.31.516-.851.03-1.703-.122-2.463-.516a4.3 4.3 0 01-1.55-1.396 6.051 6.051 0 01-.82-2.002 12.438 12.438 0 01-.244-2.367c0-.789.091-1.578.274-2.367.152-.728.456-1.395.881-2.033a4.778 4.778 0 011.581-1.426 5.356 5.356 0 014.712 0c.638.364 1.185.85 1.611 1.457.426.607.73 1.304.912 2.033.182.758.304 1.517.304 2.306-.03.819-.122 1.638-.334 2.427z"/></svg>
