<svg width="199" height="198" viewBox="0 0 199 198" fill="none" xmlns="http://www.w3.org/2000/svg">
<rect x="0.75" y="18.75" width="197.5" height="178.5" rx="15.25" fill="white" stroke="black" stroke-width="1.5"/>
<rect x="89.75" y="0.75" width="20.5" height="35.5" rx="10.25" fill="white" stroke="black" stroke-width="1.5"/>
<rect x="153.75" y="0.75" width="20.5" height="35.5" rx="10.25" fill="white" stroke="black" stroke-width="1.5"/>
<rect x="25.75" y="0.75" width="20.5" height="35.5" rx="10.25" fill="white" stroke="black" stroke-width="1.5"/>
<rect x="19.75" y="54.75" width="30.5" height="30.5" rx="2.25" fill="white" stroke="black" stroke-width="1.5"/>
<rect x="83.75" y="54.75" width="30.5" height="30.5" rx="2.25" fill="white" stroke="black" stroke-width="1.5"/>
<rect x="148.75" y="54.75" width="30.5" height="30.5" rx="2.25" fill="white" stroke="black" stroke-width="1.5"/>
<rect x="19.75" y="54.75" width="30.5" height="30.5" rx="2.25" fill="white" stroke="black" stroke-width="1.5"/>
<rect x="83.75" y="54.75" width="30.5" height="30.5" rx="2.25" fill="white" stroke="black" stroke-width="1.5"/>
<rect x="148.75" y="54.75" width="30.5" height="30.5" rx="2.25" fill="white" stroke="black" stroke-width="1.5"/>
<rect x="19.75" y="100.75" width="30.5" height="30.5" rx="2.25" fill="white" stroke="black" stroke-width="1.5"/>
<rect x="83.75" y="100.75" width="30.5" height="30.5" rx="2.25" fill="white" stroke="black" stroke-width="1.5"/>
<rect x="148.75" y="100.75" width="30.5" height="30.5" rx="2.25" fill="white" stroke="black" stroke-width="1.5"/>
<rect x="19.75" y="146.75" width="30.5" height="30.5" rx="2.25" fill="white" stroke="black" stroke-width="1.5"/>
<rect x="83.75" y="146.75" width="30.5" height="30.5" rx="2.25" fill="white" stroke="black" stroke-width="1.5"/>
<rect x="148.75" y="146.75" width="30.5" height="30.5" rx="2.25" fill="white" stroke="black" stroke-width="1.5"/>
</svg>
