<svg width="158" height="167" viewBox="0 0 158 167" fill="none" xmlns="http://www.w3.org/2000/svg">
<circle cx="33" cy="64" r="32.25" fill="white" stroke="#148571" stroke-width="1.5"/>
<path d="M133.25 34C133.25 49.6144 120.814 62.25 105.5 62.25C90.1863 62.25 77.75 49.6144 77.75 34C77.75 18.3856 90.1863 5.75003 105.5 5.75003C120.814 5.75003 133.25 18.3856 133.25 34Z" fill="white" stroke="#148571" stroke-width="1.5"/>
<path d="M57.25 137.5C57.25 153.39 44.59 166.25 29 166.25C13.41 166.25 0.75 153.39 0.75 137.5C0.75 121.61 13.41 108.75 29 108.75C44.59 108.75 57.25 121.61 57.25 137.5Z" fill="white" stroke="#148571" stroke-width="1.5"/>
<circle cx="108" cy="117" r="41.25" fill="white" stroke="#148571" stroke-width="1.5"/>
<rect x="125.085" y="64.0625" width="22.7782" height="22.7782" rx="0.5" transform="rotate(-43.9159 125.085 64.0625)" fill="white" stroke="#148571"/>
<rect x="40.9471" y="16.506" width="22.7782" height="22.7782" rx="0.5" transform="rotate(-43.9159 40.9471 16.506)" fill="white" stroke="#148571"/>
</svg>
