<svg width="36" height="36" viewBox="0 0 36 36" fill="none" xmlns="http://www.w3.org/2000/svg">
<circle cx="18" cy="18" r="18" fill="#7D34C8" fill-opacity="0.0419854"/>
<path fill-rule="evenodd" clip-rule="evenodd" d="M24 13L10.9965 13C10.2428 12.9995 10 12.8371 10 12.5C10 12.1623 10.2435 12 11 12H24C24.2761 12 24.5 11.7761 24.5 11.5C24.5 11.2239 24.2761 11 24 11H11C9.79883 11 9.05208 11.4706 9.00262 12.4H9V12.5V13V24.1001C9 24.5971 9.40294 25.0001 9.9 25.0001H25.1C25.5971 25.0001 26 24.5971 26 24.1001L26 22C26 21.7239 25.7761 21.5 25.5 21.5C25.2239 21.5 25 21.7239 25 22L25 24.0001H10V14H10.9968L11 14H24L24.0005 14L25 14L25 16L20.9 16C20.4029 16 20 16.4029 20 16.9V20.1C20 20.5971 20.4029 21 20.9 21H25H25.5H26.1C26.5971 21 27 20.5971 27 20.1V16.9C27 16.4029 26.5971 16 26.1 16H26L26 13.9C26 13.4029 25.5971 13 25.1 13L24 13ZM25.1 17L25 17H21V20H25H25.5H26V17L25.1 17ZM23 18.5C23 18.7761 22.7761 19 22.5 19C22.2239 19 22 18.7761 22 18.5C22 18.2239 22.2239 18 22.5 18C22.7761 18 23 18.2239 23 18.5Z" fill="#7D34C8"/>
</svg>
