<svg width="28" height="28" viewBox="0 0 28 28" fill="none" xmlns="http://www.w3.org/2000/svg">
<path fill-rule="evenodd" clip-rule="evenodd" d="M10.0833 7.29171C9.66912 7.29171 9.33333 7.62749 9.33333 8.04171V8.29171C9.33333 8.70592 9.66912 9.04171 10.0833 9.04171H23.75C24.1642 9.04171 24.5 8.70592 24.5 8.29171V8.04171C24.5 7.62749 24.1642 7.29171 23.75 7.29171H10.0833ZM3.5 14.1667C3.5 13.7525 3.83579 13.4167 4.25 13.4167H17.9167C18.3309 13.4167 18.6667 13.7525 18.6667 14.1667V14.4167C18.6667 14.8309 18.3309 15.1667 17.9167 15.1667H4.25C3.83579 15.1667 3.5 14.8309 3.5 14.4167V14.1667ZM9.33333 20.2917C9.33333 19.8775 9.66912 19.5417 10.0833 19.5417H23.75C24.1642 19.5417 24.5 19.8775 24.5 20.2917V20.5417C24.5 20.9559 24.1642 21.2917 23.75 21.2917H10.0833C9.66912 21.2917 9.33333 20.9559 9.33333 20.5417V20.2917ZM5.83333 10.5C4.54467 10.5 3.5 9.45537 3.5 8.16671C3.5 6.87804 4.54467 5.83337 5.83333 5.83337C7.122 5.83337 8.16667 6.87804 8.16667 8.16671C8.16667 9.45537 7.122 10.5 5.83333 10.5ZM5.83333 9.10004C6.3488 9.10004 6.76667 8.68217 6.76667 8.16671C6.76667 7.65124 6.3488 7.23337 5.83333 7.23337C5.31787 7.23337 4.9 7.65124 4.9 8.16671C4.9 8.68217 5.31787 9.10004 5.83333 9.10004ZM5.83333 22.75C4.54467 22.75 3.5 21.7054 3.5 20.4167C3.5 19.128 4.54467 18.0834 5.83333 18.0834C7.122 18.0834 8.16667 19.128 8.16667 20.4167C8.16667 21.7054 7.122 22.75 5.83333 22.75ZM5.83333 21.35C6.3488 21.35 6.76667 20.9322 6.76667 20.4167C6.76667 19.9012 6.3488 19.4834 5.83333 19.4834C5.31787 19.4834 4.9 19.9012 4.9 20.4167C4.9 20.9322 5.31787 21.35 5.83333 21.35ZM22.1667 16.625C20.878 16.625 19.8333 15.5804 19.8333 14.2917C19.8333 13.003 20.878 11.9584 22.1667 11.9584C23.4553 11.9584 24.5 13.003 24.5 14.2917C24.5 15.5804 23.4553 16.625 22.1667 16.625ZM22.1667 15.225C22.6821 15.225 23.1 14.8072 23.1 14.2917C23.1 13.7762 22.6821 13.3584 22.1667 13.3584C21.6512 13.3584 21.2333 13.7762 21.2333 14.2917C21.2333 14.8072 21.6512 15.225 22.1667 15.225Z" fill="black"/>
<mask id="mask0" mask-type="alpha" maskUnits="userSpaceOnUse" x="3" y="5" width="22" height="18">
<path fill-rule="evenodd" clip-rule="evenodd" d="M10.0833 7.29171C9.66912 7.29171 9.33333 7.62749 9.33333 8.04171V8.29171C9.33333 8.70592 9.66912 9.04171 10.0833 9.04171H23.75C24.1642 9.04171 24.5 8.70592 24.5 8.29171V8.04171C24.5 7.62749 24.1642 7.29171 23.75 7.29171H10.0833ZM3.5 14.1667C3.5 13.7525 3.83579 13.4167 4.25 13.4167H17.9167C18.3309 13.4167 18.6667 13.7525 18.6667 14.1667V14.4167C18.6667 14.8309 18.3309 15.1667 17.9167 15.1667H4.25C3.83579 15.1667 3.5 14.8309 3.5 14.4167V14.1667ZM9.33333 20.2917C9.33333 19.8775 9.66912 19.5417 10.0833 19.5417H23.75C24.1642 19.5417 24.5 19.8775 24.5 20.2917V20.5417C24.5 20.9559 24.1642 21.2917 23.75 21.2917H10.0833C9.66912 21.2917 9.33333 20.9559 9.33333 20.5417V20.2917ZM5.83333 10.5C4.54467 10.5 3.5 9.45537 3.5 8.16671C3.5 6.87804 4.54467 5.83337 5.83333 5.83337C7.122 5.83337 8.16667 6.87804 8.16667 8.16671C8.16667 9.45537 7.122 10.5 5.83333 10.5ZM5.83333 9.10004C6.3488 9.10004 6.76667 8.68217 6.76667 8.16671C6.76667 7.65124 6.3488 7.23337 5.83333 7.23337C5.31787 7.23337 4.9 7.65124 4.9 8.16671C4.9 8.68217 5.31787 9.10004 5.83333 9.10004ZM5.83333 22.75C4.54467 22.75 3.5 21.7054 3.5 20.4167C3.5 19.128 4.54467 18.0834 5.83333 18.0834C7.122 18.0834 8.16667 19.128 8.16667 20.4167C8.16667 21.7054 7.122 22.75 5.83333 22.75ZM5.83333 21.35C6.3488 21.35 6.76667 20.9322 6.76667 20.4167C6.76667 19.9012 6.3488 19.4834 5.83333 19.4834C5.31787 19.4834 4.9 19.9012 4.9 20.4167C4.9 20.9322 5.31787 21.35 5.83333 21.35ZM22.1667 16.625C20.878 16.625 19.8333 15.5804 19.8333 14.2917C19.8333 13.003 20.878 11.9584 22.1667 11.9584C23.4553 11.9584 24.5 13.003 24.5 14.2917C24.5 15.5804 23.4553 16.625 22.1667 16.625ZM22.1667 15.225C22.6821 15.225 23.1 14.8072 23.1 14.2917C23.1 13.7762 22.6821 13.3584 22.1667 13.3584C21.6512 13.3584 21.2333 13.7762 21.2333 14.2917C21.2333 14.8072 21.6512 15.225 22.1667 15.225Z" fill="white"/>
</mask>
<g mask="url(#mask0)">
</g>
</svg>
