<svg width="16" height="14" viewBox="0 0 16 14" fill="none" xmlns="http://www.w3.org/2000/svg">
<path fill-rule="evenodd" clip-rule="evenodd" d="M7.03505 2.31436L6.67696 3.79168C6.61191 4.06005 6.34162 4.22488 6.07325 4.15983C5.80488 4.09478 5.64006 3.82449 5.70511 3.55612L6.06591 2.06811L6.51679 0.372145C6.57502 0.153088 6.77333 0.000610352 7 0.000610352H9C9.21743 0.000610352 9.40994 0.141129 9.47621 0.348216L13.4762 12.8476C13.4924 12.8982 13.5001 12.9495 13.5001 13H15.5C15.7761 13 16 13.2238 16 13.5C16 13.7761 15.7761 14 15.5 14H0.5C0.223858 14 0 13.7761 0 13.5C0 13.2238 0.223858 13 0.5 13H2.49986C2.49987 12.9476 2.50818 12.8943 2.52566 12.8419L5.02566 5.34187C5.09679 5.12848 5.29784 4.99498 5.51154 4.99998H9.91489L8.63503 1.00061H7.38441L7.03505 2.31436ZM10.2349 5.99998H5.86038L4.86038 8.99998H11.195L10.2349 5.99998ZM3.52705 13L4.52705 9.99998H11.515L12.475 13H3.52705Z" fill="#7D34C8"/>
</svg>
