<svg width="36" height="36" viewBox="0 0 36 36" fill="none" xmlns="http://www.w3.org/2000/svg">
<rect width="36" height="36" rx="18" fill="white"/>
<rect width="36" height="36" rx="18" fill="#E7FFB9" fill-opacity="0.5"/>
<path fill-rule="evenodd" clip-rule="evenodd" d="M26.9062 13.0625C26.8437 12.9792 26.7708 12.9167 26.6875 12.875L18.2361 10.0278C18.162 10.0093 18.0833 10 18 10C17.875 10 17.7604 10.0209 17.6562 10.0625L9.3125 12.875C9.22917 12.9167 9.15625 12.9792 9.09375 13.0625C9.03125 13.1459 9 13.2396 9 13.3438V14.5C9 14.6459 9.04687 14.7656 9.14062 14.8594C9.23437 14.9531 9.35417 15 9.5 15H26.5C26.6458 15 26.7656 14.9531 26.8593 14.8594C26.9531 14.7656 27 14.6459 27 14.5V13.3438C27 13.2396 26.9687 13.1459 26.9062 13.0625ZM26 13.7188V14H10V13.7188L18 11L26 13.7188ZM26.75 25C26.8125 25 26.8697 25.026 26.9218 25.0781C26.9739 25.1302 27 25.1875 27 25.25V25.75C27 25.8125 26.9739 25.8698 26.9218 25.9219C26.8697 25.974 26.8125 26 26.75 26H9.25C9.1875 26 9.13021 25.974 9.07812 25.9219C9.02604 25.8698 9 25.8125 9 25.75V25.25C9 25.1875 9.02604 25.1302 9.07812 25.0781C9.13021 25.026 9.1875 25 9.25 25H10V23C10 22.7292 10.1094 22.4948 10.3281 22.2969C10.5469 22.099 10.8229 22 11.1562 22H11.5V16H12.5V22H15.5V16H16.5V22H19.5V16H20.5V22H23.5V16H24.5V22H24.8437C25.177 22 25.4531 22.099 25.6718 22.2969C25.8906 22.4948 26 22.7292 26 23V25H26.75ZM11 23.0312V25H25V23.0312C24.9583 23.0104 24.9062 23 24.8437 23H11.1562C11.0937 23 11.0417 23.0104 11 23.0312Z" fill="#8AC31C"/>
</svg>
