<svg width="40" height="40" viewBox="0 0 40 40" fill="none" xmlns="http://www.w3.org/2000/svg">
<rect width="40" height="40" rx="20" fill="#F2EBF9"/>
<path fill-rule="evenodd" clip-rule="evenodd" d="M15.5013 20.2789C15.552 16.0096 17.0352 14 20 14C23.0141 14 24.5 16.0803 24.5 20.5V20.618L26.6187 24.8553C26.6434 24.9047 26.6233 24.9647 26.5739 24.9894C26.56 24.9964 26.5447 25 26.5292 25H22.0901L22.0097 25.4019C21.7197 26.8523 21.0719 27.5 20 27.5C19.0886 27.5 18.4839 27.0317 18.1449 26H20.5C20.7762 26 21 25.7761 21 25.5C21 25.2239 20.7762 25 20.5 25H17.9099H17.5H13.4708C13.4156 25 13.3708 24.9552 13.3708 24.9C13.3708 24.8845 13.3745 24.8692 13.3814 24.8553L15.3431 20.9319C15.4445 20.729 15.4986 20.5057 15.5013 20.2789ZM18.0385 13.304C18.434 12.1454 19.0892 11.5 20 11.5C20.9108 11.5 21.5659 12.1453 21.9615 13.3037C24.2895 14.1103 25.476 16.5126 25.4997 20.3812L27.5131 24.4081C27.7848 24.9514 27.5645 25.6122 27.0211 25.8839C26.8684 25.9602 26.7 26 26.5292 26H22.8967C22.4605 27.6256 21.4773 28.5 20 28.5C18.5227 28.5 17.5396 27.6256 17.1034 26H13.4708C12.8633 26 12.3708 25.5075 12.3708 24.9C12.3708 24.7292 12.4106 24.5608 12.487 24.4081L14.4487 20.4847C14.4825 20.4171 14.5005 20.3427 14.5014 20.267C14.5465 16.4665 15.7339 14.1031 18.0385 13.304ZM20 12.5C20.2766 12.5 20.5207 12.653 20.7337 13H19.2663C19.4793 12.653 19.7235 12.5 20 12.5Z" fill="#B05CE9"/>
</svg>
