<svg width="26" height="25" viewBox="0 0 26 25" fill="none" xmlns="http://www.w3.org/2000/svg">
<path fill-rule="evenodd" clip-rule="evenodd" d="M25.4345 9.0602C25.3437 8.95552 25.2156 8.89033 25.0775 8.87842L16.7462 8.16L13.4909 0.490793C13.3758 0.219656 13.0627 0.0931551 12.7916 0.208245C12.6642 0.262293 12.5629 0.363699 12.5089 0.491059L9.25291 8.17334L0.925778 8.87981C0.63228 8.90471 0.414539 9.16282 0.43944 9.45632C0.451192 9.59485 0.516573 9.72331 0.621652 9.81434L6.94624 15.2933L5.04673 23.4358C4.97981 23.7226 5.1581 24.0094 5.44495 24.0763C5.58033 24.1079 5.72269 24.0854 5.84171 24.0135L12.9996 19.6933L20.1595 24.0148C20.4117 24.167 20.7395 24.0859 20.8917 23.8337C20.9634 23.7149 20.986 23.5729 20.9546 23.4377L19.0662 15.2933L25.3813 9.81257C25.6037 9.6195 25.6276 9.28266 25.4345 9.0602ZM13.0005 2.74795L15.8324 9.41948L23.0799 10.0444L17.5861 14.8125L19.2283 21.8954L12.9996 18.136L6.77593 21.8923L8.42754 14.8125L2.9278 10.0481L10.1668 9.43393L13.0005 2.74795Z" fill="#F08022"/>
</svg>
