<svg width="18" height="18" viewBox="0 0 18 18" fill="none" xmlns="http://www.w3.org/2000/svg">
    <path fill-rule="evenodd" clip-rule="evenodd"
        d="M10.0001 8H0.982097C0.230792 8 -0.0859511 7.47418 0.063555 6.87789C1.04277 2.87004 4.68262 0 8.90463 0C13.9267 0 18.0001 4.02818 18.0001 9C18.0001 13.9718 13.9267 18 8.90463 18C4.87402 18 2.43081 16.0042 0.721339 12.9412C0.353793 12.1944 0.140013 11.6388 0.0413409 11.1053C-0.0849949 10.5918 0.301621 10 0.982097 10H10.0052L9.98712 11.7882L13.8199 8.9991L10.0001 6.20703V8ZM8.90463 17C13.3769 17 17.0001 13.417 17.0001 9C17.0001 4.58298 13.3769 1 8.90463 1C5.18604 1 1.97691 3.49792 1.06409 7H9.00012V5.59404C9.00012 5.21364 9.3085 4.90526 9.6889 4.90526C9.83503 4.90526 9.97738 4.95174 10.0954 5.03797L14.7256 8.42247C15.0444 8.65546 15.1139 9.10273 14.8809 9.42148C14.8372 9.48133 14.7844 9.53402 14.7244 9.57765L10.0749 12.9611C9.76734 13.1849 9.33655 13.117 9.11272 12.8095C9.02563 12.6898 8.97941 12.5452 8.98091 12.3972L8.99504 11H1.03985C1.13171 11.4196 1.31043 11.8726 1.60095 12.4653C3.15178 15.2383 5.31338 17 8.90463 17Z"
        fill="#F08022" />
</svg>
