<svg width="48" height="48" viewBox="0 0 48 48" fill="none" xmlns="http://www.w3.org/2000/svg">
<path opacity="0.8" d="M0 6C0 2.68629 2.68629 0 6 0H48V42C48 45.3137 45.3137 48 42 48H0V6Z" fill="#7D34C8"/>
<path fill-rule="evenodd" clip-rule="evenodd" d="M30.265 19.3945L33.6365 19.9413C34.2277 20.0257 34.6668 20.532 34.6668 21.1292V32.1333C34.6668 32.7961 34.1296 33.3333 33.4668 33.3333H14.5335C13.8708 33.3333 13.3335 32.7961 13.3335 32.1333V21.1292C13.3335 20.532 13.7726 20.0257 14.3638 19.9413L17.7353 19.3945L19.2471 16.7543C19.4293 16.2987 19.8706 16 20.3612 16H27.6391C28.1298 16 28.571 16.2987 28.7532 16.7543L30.265 19.3945ZM14.6668 32H33.3335V21.2449L30.0001 20.7036C29.5752 20.6429 29.2151 20.3598 29.0557 19.9613L27.5488 17.3333H20.4515L18.9446 19.9613C18.7852 20.3598 18.4251 20.6429 18.0001 20.7036L14.6668 21.2449V32ZM27.8556 28.046C28.1837 28.2131 28.5851 28.0827 28.7523 27.7546C30.0895 25.1301 29.046 21.9185 26.4215 20.5813C23.797 19.2441 20.5854 20.2876 19.2482 22.912C17.911 25.5365 18.9545 28.7481 21.579 30.0854C23.1405 30.881 24.9623 30.8529 26.4844 30.0532C26.8103 29.882 26.9357 29.479 26.7645 29.153C26.5933 28.8271 26.1902 28.7016 25.8643 28.8729C24.7213 29.4734 23.3561 29.4944 22.1843 28.8974C20.2159 27.8944 19.4333 25.4857 20.4362 23.5174C21.4391 21.549 23.8478 20.7664 25.8162 21.7693C27.7846 22.7722 28.5672 25.1809 27.5643 27.1493C27.3971 27.4774 27.5275 27.8788 27.8556 28.046Z" fill="white"/>
</svg>
