<svg width="32" height="32" viewBox="0 0 32 32" fill="none" xmlns="http://www.w3.org/2000/svg">
<path fill-rule="evenodd" clip-rule="evenodd" d="M11.1461 21.0778C9.71122 21.0778 8.80586 19.5344 9.50613 18.2819L10.3453 16.781C10.6955 16.1547 11.5968 16.1547 11.947 16.781V16.781C12.2971 17.4073 13.1984 17.4073 13.5486 16.781L15.5937 13.1231C16.3571 11.7578 18.3217 11.7578 19.0851 13.1231L21.8687 18.1018C22.6141 19.435 21.6504 21.0778 20.123 21.0778H11.1461Z" stroke="#8A8A8A"/>
<path d="M25.3788 28.7176V22.0624" stroke="#8A8A8A" stroke-linecap="round"/>
<path d="M22.0513 25.39H28.7064" stroke="#8A8A8A" stroke-linecap="round"/>
<circle cx="9.74057" cy="12.083" r="1.14103" stroke="#8A8A8A"/>
<path d="M20.4558 25.39H8.15385C7.04928 25.39 6.15385 24.4946 6.15385 23.39V8.15387C6.15385 7.0493 7.04928 6.15387 8.15385 6.15387H23.3789C24.4834 6.15387 25.3789 7.0493 25.3789 8.15387V20.2573" stroke="#8A8A8A" stroke-linecap="round"/>
</svg>
