<svg width="48" height="48" viewBox="0 0 48 48" fill="none" xmlns="http://www.w3.org/2000/svg">
<path opacity="0.8" d="M0 6C0 2.68629 2.68629 0 6 0H48V48H0V6Z" fill="#7D34C8"/>
<path fill-rule="evenodd" clip-rule="evenodd" d="M32.5029 19.7213C32.9422 20.0831 33.3525 19.6729 33.3525 19.6729C34.5141 18.0448 34.6643 16.3164 33.1597 14.8118C31.3114 12.9635 29.1636 13.3388 27.0473 15.7408L16.6994 26.0869C16.439 26.3473 16.439 26.7694 16.6993 27.0297C16.9597 27.2901 17.3818 27.2901 17.6421 27.0297L27.359 17.3129L30.6587 20.6126L20.0031 31.2681L16.3366 27.6017C16.2721 27.5462 16.2399 27.5184 16.2043 27.496C16.1687 27.4736 16.1297 27.4565 16.0518 27.4223C15.6559 27.2828 15.2219 27.4906 15.0824 27.8865L12.8884 34.1136C12.8308 34.2771 12.8308 34.4554 12.8885 34.6189C13.0281 35.0147 13.4621 35.2225 13.858 35.0829L20.0837 32.8875C20.1228 32.8703 20.1521 32.8575 20.1761 32.8461C20.1836 32.8458 20.191 32.8442 20.1982 32.8413C20.3173 32.7937 20.4035 32.7533 20.5137 32.6431L32.2615 20.8953C32.4177 20.7391 32.4177 20.4859 32.2615 20.3297L28.2891 16.3574C29.8414 14.7236 31.0491 14.5869 32.2168 15.7546C33.1346 16.6724 33.0976 17.6457 32.3798 18.7343C32.32 18.825 32.0637 19.3596 32.5029 19.7213ZM18.782 31.9327L14.5439 33.4272L16.0375 29.1882L18.782 31.9327Z" fill="white"/>
</svg>
