<svg width="40" height="40" viewBox="0 0 40 40" fill="none" xmlns="http://www.w3.org/2000/svg">
<circle cx="20" cy="20" r="20" fill="#763EC3" fill-opacity="0.12"/>
<path fill-rule="evenodd" clip-rule="evenodd" d="M21.2429 19.0857C21.4423 19.0857 22.1808 19.6869 22.9104 20.4563C23.2407 20.3041 23.5904 20.1869 23.9548 20.1094C22.9672 19.0057 21.7835 18.0857 21.2429 18.0857C21.023 18.0857 20.8498 18.1581 20.623 18.3014C20.6656 18.2744 20.283 18.5267 20.1644 18.5944C19.7362 18.8392 19.2622 18.9714 18.5857 18.9714C16.6723 18.9714 15.5429 17.4313 15.5429 14.6C15.5429 13.0555 16.7039 12 18.5857 12C20.4675 12 21.6286 13.0555 21.6286 14.6C21.6286 15.7103 21.4928 16.525 21.2385 17.0335C21.115 17.2805 21.2151 17.5809 21.4621 17.7044C21.7091 17.8279 22.0094 17.7277 22.1329 17.4807C22.4691 16.8084 22.6286 15.8516 22.6286 14.6C22.6286 12.4808 20.9996 11 18.5857 11C16.1718 11 14.5429 12.4808 14.5429 14.6C14.5429 17.9284 16.0411 19.9714 18.5857 19.9714C19.4408 19.9714 20.0848 19.7917 20.6606 19.4627C20.8119 19.3762 21.2239 19.1046 21.157 19.1469C21.1802 19.1322 21.1989 19.1209 21.2133 19.1122L21.2133 19.1121C21.2477 19.0914 21.2571 19.0857 21.2429 19.0857ZM18.5857 26.5C19.1454 26.5 19.6881 26.4783 20.2096 26.4371C20.3107 26.7745 20.4464 27.0969 20.6127 27.4002C19.9586 27.4646 19.277 27.5 18.5857 27.5C14.6343 27.5 11 26.3436 11 25.2286C11 24.2674 11.1942 23.3937 11.9385 21.905C12.5648 20.6525 13.5015 19.5596 14.7429 18.6286C14.9638 18.4629 15.2772 18.5077 15.4429 18.7286C15.6085 18.9495 15.5638 19.2629 15.3429 19.4286C14.2223 20.269 13.3876 21.2428 12.8329 22.3522C12.1958 23.6264 12.0184 24.3402 12.0014 25.1003C12.0549 25.1454 12.1349 25.2008 12.2375 25.261C12.5433 25.4405 12.9913 25.6313 13.5337 25.8039C14.8961 26.2374 16.6378 26.5 18.5857 26.5ZM21 25C21 27.2091 22.7909 29 25 29C27.2091 29 29 27.2091 29 25C29 22.7909 27.2091 21 25 21C22.7909 21 21 22.7909 21 25ZM28.1111 25C28.1111 26.7182 26.7182 28.1111 25 28.1111C23.2818 28.1111 21.8889 26.7182 21.8889 25C21.8889 23.2818 23.2818 21.8889 25 21.8889C26.7182 21.8889 28.1111 23.2818 28.1111 25ZM25.3496 24.6159H26.5938C26.7825 24.6159 26.9355 24.7689 26.9355 24.9577C26.9355 25.1465 26.7825 25.2995 26.5938 25.2995H25.3496V26.7331C25.3496 26.9337 25.187 27.0964 24.9863 27.0964C24.7857 27.0964 24.623 26.9337 24.623 26.7331V25.2995H23.3789C23.1901 25.2995 23.0371 25.1465 23.0371 24.9577C23.0371 24.7689 23.1901 24.6159 23.3789 24.6159H24.623V23.319C24.623 23.1184 24.7857 22.9557 24.9863 22.9557C25.187 22.9557 25.3496 23.1184 25.3496 23.319V24.6159Z" fill="#9F50DE"/>
</svg>
