<svg xmlns="http://www.w3.org/2000/svg" width="162" height="48" viewBox="0 0 162 48"><g fill="none"><path fill="#000001" stroke="#B7B7B7" d="M152.646.197H8.93c-.672 0-1.591.03-2.475.192-.766.127-1.49.313-2.146.628A6.942 6.942 0 002.488 2.24c-.51.465-.952.99-1.291 1.61-.34.59-.54 1.202-.642 1.92a14.11 14.11 0 00-.217 2.323c-.03.213-.032.83-.032 1.015v29.045c.004.101.036.893.036 1.148 0 .606.034 1.436.211 2.248.136.71.336 1.33.675 1.917.339.588.743 1.146 1.297 1.62A6.8 6.8 0 004.3 46.272a7.587 7.587 0 002.143.663c.804.123 1.644.158 2.498.195h1.235l139.757.067h2.748c.745 0 1.63-.065 2.48-.194.829-.158 1.52-.345 2.177-.66.647-.311 1.263-.681 1.785-1.19a6.823 6.823 0 001.297-1.62c.335-.612.538-1.235.675-1.95.136-.75.173-1.504.21-2.261V8.104a17.317 17.317 0 00-.248-2.297c-.134-.707-.335-1.326-.674-1.914a6.413 6.413 0 00-1.296-1.653 7.492 7.492 0 00-1.785-1.19 8.255 8.255 0 00-2.17-.659 18.391 18.391 0 00-2.487-.194z"/><path d="M96.936 21.266c3.116 0 5.277 1.749 5.34 4.323h-2.224c-.127-1.462-1.367-2.384-3.147-2.384-1.78 0-3.02.89-3.02 2.225 0 1.05.794 1.653 2.702 2.13l1.62.413c3.053.732 4.292 1.94 4.292 4.101 0 2.766-2.193 4.514-5.722 4.514-3.274 0-5.499-1.685-5.658-4.387h2.32v.032c.16 1.462 1.59 2.448 3.53 2.448 1.875 0 3.21-.954 3.21-2.289 0-1.144-.795-1.844-2.734-2.32l-1.907-.477c-2.734-.668-3.974-1.94-3.974-4.006 0-2.543 2.225-4.323 5.372-4.323zm18.755 4.164c3.116 0 5.118 2.13 5.118 5.532 0 3.4-1.97 5.53-5.118 5.53-3.147 0-5.117-2.13-5.117-5.53 0-3.402 2.002-5.532 5.117-5.532zm17.929 0c2.988 0 4.863 2.067 4.863 5.309v.763h-7.629v.127c0 1.844 1.145 3.052 2.893 3.052 1.24 0 2.193-.572 2.48-1.526h2.13v.032c-.287 1.97-2.194 3.306-4.642 3.306-3.147 0-5.086-2.098-5.086-5.468s1.971-5.595 4.99-5.595zm-26.29-2.415v2.543h2.066v1.748h-2.066v5.944c0 .922.413 1.367 1.303 1.367.223 0 .573-.032.732-.063v1.748c-.255.064-.732.095-1.24.095-2.194 0-3.052-.826-3.052-2.924v-6.168h-1.557v-1.748h1.557v-2.542h2.257zm20.058 2.447c.318 0 .573.032.763.096v2.066c-.159-.064-.572-.127-.985-.127-1.43 0-2.32.953-2.32 2.48v6.389h-2.226V25.558h2.098v1.843h.064c.35-1.208 1.335-1.939 2.606-1.939zm-11.698 1.78c-1.78 0-2.86 1.399-2.86 3.72 0 2.352 1.08 3.687 2.86 3.687 1.78 0 2.861-1.367 2.861-3.687 0-2.321-1.08-3.72-2.86-3.72zm17.96 0c-1.557-.031-2.67 1.081-2.765 2.734h5.404c-.064-1.653-1.113-2.734-2.638-2.734zM69.122 25.43c2.797.032 4.61 2.194 4.61 5.532 0 3.37-1.781 5.499-4.515 5.499-1.526 0-2.765-.7-3.401-1.876h-.064v5.34h-2.225V25.559h2.13v1.78h.032c.604-1.145 1.939-1.908 3.433-1.908zm11.857 0c2.829.032 4.61 2.194 4.61 5.532 0 3.37-1.781 5.499-4.515 5.499-1.526 0-2.765-.7-3.401-1.876h-.064v5.34h-2.225V25.559h2.13v1.78h.032c.604-1.145 1.939-1.908 3.433-1.908zm-24.16-3.878l5.341 14.814h-2.416L58.41 32.36h-5.659l-1.367 4.006H49l5.34-14.814h2.48zm11.762 5.786c-1.684 0-2.829 1.462-2.829 3.624 0 2.161 1.145 3.623 2.83 3.623 1.748 0 2.86-1.43 2.86-3.623 0-2.194-1.144-3.624-2.86-3.624zm11.89 0c-1.686 0-2.83 1.462-2.83 3.624 0 2.161 1.144 3.623 2.83 3.623 1.716 0 2.86-1.43 2.86-3.623 0-2.194-1.144-3.624-2.86-3.624zm-24.828-3.306h-.063l-2.225 6.485h4.482l-2.193-6.485zm74.893-11.953c1.494 0 2.385 1.018 2.385 2.702v.382h-3.783v.063c.032.954.572 1.526 1.43 1.526.636 0 1.081-.222 1.272-.635l1.006-.001-.037.124c-.303.864-1.132 1.402-2.273 1.402-1.525 0-2.479-1.049-2.479-2.765 0-1.717.954-2.798 2.48-2.798zm-11.094-1.271v1.367h1.177v.89h-1.177v2.765c0 .573.223.795.763.795.16 0 .255 0 .414-.032v.89c-.16.032-.382.064-.573.064-1.176 0-1.653-.413-1.653-1.462v-3.02h-.858v-.89h.858v-1.367h1.05zm3.656-.763v2.956h.095c.255-.604.827-.953 1.622-.953 1.144 0 1.843.73 1.843 2.002v3.465h-1.048v-3.21c0-.859-.413-1.304-1.144-1.304-.858 0-1.367.54-1.367 1.367v3.147h-1.049v-7.47h1.049zm7.407 2.893c-.763 0-1.335.572-1.367 1.398h2.702c-.032-.858-.54-1.398-1.335-1.398zm-25.558-.89c1.558 0 2.543 1.049 2.543 2.797 0 1.748-.954 2.797-2.543 2.797-1.558-.031-2.543-1.08-2.543-2.797s.954-2.797 2.543-2.797zm6.612 0c1.208 0 1.844.73 1.844 2.002v3.465h-1.05v-3.21c0-.859-.38-1.304-1.144-1.304-.763 0-1.271.509-1.271 1.367v3.147h-1.05v-5.372h1.018v.858h.064c.254-.604.794-.953 1.589-.953zm-6.612.953c-.922 0-1.43.668-1.43 1.844 0 1.176.508 1.844 1.43 1.844.922 0 1.43-.7 1.43-1.844 0-1.176-.508-1.844-1.43-1.844zm-44.757-.953c1.557 0 2.542 1.049 2.542 2.797 0 1.748-.953 2.797-2.543 2.797-1.557-.031-2.543-1.08-2.543-2.797s.954-2.797 2.544-2.797zm23.3 0c1.558 0 2.543 1.049 2.543 2.797 0 1.748-.954 2.797-2.543 2.797-1.59-.031-2.543-1.08-2.543-2.797s.954-2.797 2.543-2.797zm14.527-1.971v7.47H97v-.858h-.095c-.318.572-.954.922-1.685.922-1.335 0-2.194-1.081-2.194-2.766s.859-2.766 2.226-2.766c.73 0 1.367.35 1.653.954h.063v-2.956h1.05zm-8.487 1.938c1.335 0 2.098.667 2.098 1.812v3.655H90.61v-.763h-.096c-.318.54-.922.859-1.621.859-1.017.032-1.78-.604-1.78-1.59 0-.953.731-1.525 2.003-1.589l1.462-.095v-.477c0-.572-.382-.89-1.113-.89-.604 0-.985.222-1.112.604h-1.018c.096-.922.986-1.526 2.194-1.526zm-36.461-1.62c2.098 0 3.338 1.303 3.338 3.528 0 2.257-1.24 3.592-3.338 3.592h-2.575v-7.12h2.575zm11.444 1.748l.953 4.1h.064l1.112-4.1h1.018l1.112 4.1h.096l.953-4.1h1.05l-1.431 5.372h-1.113l-1.112-3.942h-.096l-1.112 3.942h-1.081l-1.494-5.372h1.08zm10.33-.095c1.209 0 1.844.73 1.844 2.002v3.465h-1.049v-3.21c0-.859-.381-1.304-1.144-1.304-.763 0-1.271.509-1.271 1.367v3.147h-1.05v-5.372h1.018v.858h.063c.255-.604.795-.953 1.59-.953zm4.611-2.003v7.47h-1.049v-7.47h1.049zm11.126 5.054l-1.304.096c-.73.063-1.08.286-1.08.763 0 .476.413.762.985.762.795 0 1.399-.508 1.399-1.176v-.445zm-30.39-2.098c-.921 0-1.43.668-1.43 1.844 0 1.176.509 1.844 1.43 1.844.922 0 1.43-.7 1.43-1.844 0-1.176-.508-1.844-1.43-1.844zm23.301 0c-.922 0-1.43.668-1.43 1.844 0 1.176.508 1.844 1.43 1.844.922 0 1.43-.7 1.43-1.844 0-1.176-.508-1.844-1.43-1.844zm12.048.032c-.89-.032-1.43.668-1.43 1.812 0 1.144.54 1.812 1.43 1.812.89 0 1.43-.7 1.43-1.812 0-1.113-.572-1.812-1.43-1.812zm-42.597-1.59h-1.335v5.087h1.335c1.494 0 2.352-.922 2.352-2.543s-.858-2.543-2.352-2.543zm-26.77 6.408c1.154 0 3.354-1.599 5.626-1.35.973.035 3.678.355 5.409 2.878-.145.107-3.21 1.884-3.174 5.544.036 4.407 3.895 5.864 3.967 5.864-.036.106-.613 2.096-2.055 4.122-1.226 1.777-2.489 3.518-4.508 3.554-1.983.035-2.632-1.138-4.868-1.138-2.272 0-2.957 1.102-4.832 1.173-1.947.071-3.39-1.883-4.652-3.66-2.488-3.625-4.471-10.164-1.839-14.641 1.262-2.168 3.606-3.59 6.058-3.625 1.911-.036 3.678 1.28 4.868 1.28zM31.87 9.5c.18 1.706-.505 3.412-1.515 4.655-1.045 1.209-2.74 2.168-4.363 2.026-.216-1.635.613-3.412 1.55-4.478 1.046-1.208 2.885-2.132 4.328-2.203z" fill="#FFF"/></g></svg>
