<svg xmlns="http://www.w3.org/2000/svg" width="264" height="120" viewBox="0 0 264 120">
    <path fill="#00A39E" fill-rule="evenodd" d="M110.214 12.366c-.023.356-.373.819-.705.992-.369.192-.88.139-1.328.142-1.94.012-3.88.005-5.82.005v-.003c-1.941 0-3.881.002-5.822-.002-.451-.001-.918.039-1.351-.06-.576-.132-1.126-.387-1.122-1.13.005-.716.486-1.032 1.086-1.174.371-.088.77-.084 1.156-.084 3.945-.006 7.89-.011 11.835.006.506.002 1.076.013 1.496.241.31.17.597.712.575 1.067zm24.492-.022c-.035-.688.4-1.081 1.019-1.234.371-.092.77-.093 1.157-.093 3.953-.006 7.907-.007 11.861.004.45.002.978-.043 1.327.168.388.235.851.747.84 1.126-.011.382-.498.869-.898 1.086-.36.195-.883.107-1.334.11-1.944.007-3.889.002-5.833.003-1.88 0-3.76.003-5.64-.002-.453 0-.91.011-1.357-.05-.633-.088-1.108-.426-1.142-1.118zM121.04 53.33c.013.377-.475 1.08-.79 1.108-1.405.123-2.832.125-4.237.006-.321-.028-.78-.688-.833-1.1-.082-.644.377-1.06 1.086-1.061h1.935v.015c.644 0 1.323-.124 1.92.044.39.11.907.634.92.988zm17.252-10.612c.012.66-.256 1.194-.958 1.225-1.289.057-2.582.043-3.873.01-.608-.016-.894-.424-.93-1.029-.04-.69.232-1.142.94-1.213.64-.066 1.288-.066 1.988-.098.591.029 1.237.046 1.88.098.603.048.941.393.953 1.007zm-.049 31.882c-.103.39-.572.851-.963.957-.6.16-1.273.042-1.914.042v.025c-.579 0-1.156.007-1.734-.002-.683-.01-1.079-.333-1.108-1.048-.028-.687.275-1.165.964-1.19 1.282-.048 2.569-.046 3.85.01.705.03 1.069.591.905 1.206zm-8.554-.038c-.025.708-.433 1.045-1.128 1.047-.584.002-1.167 0-1.75 0v-.014c-.649 0-1.298.024-1.945-.006-.724-.034-1.027-.52-1.003-1.175.02-.564.305-1.023.938-1.037 1.295-.029 2.592-.046 3.886 0 .694.023 1.026.504 1.002 1.185zM103.74 53.3c.028.687-.338 1.171-.998 1.204-1.289.064-2.586.066-3.873-.009-.66-.038-1.003-.541-.964-1.229.041-.735.502-.992 1.173-.991h1.745v.014c.582 0 1.164-.01 1.745.003.656.016 1.14.273 1.171 1.008zm8.574 21.143c-.067.415-.447.966-.822 1.103-.643.236-1.386.195-2.177.28-.62-.075-1.348-.072-2.007-.284-.334-.108-.775-.62-.753-.92.03-.412.426-1.116.71-1.139 1.452-.115 2.922-.103 4.377-.007.263.018.719.673.672.967zm-8.591.112c-.028.723-.437 1.038-1.116 1.051-.58.012-1.162.003-1.742.003v-.011c-.645 0-1.32.117-1.925-.041-.394-.104-.87-.555-.976-.943-.168-.616.202-1.19.9-1.224 1.286-.063 2.58-.06 3.867-.013.682.025 1.018.479.992 1.178zm8.64-21.261c.023.742-.354 1.23-1.145 1.242-1.215.02-2.433.041-3.647-.01-.653-.026-1.046-.453-1.061-1.134-.017-.715.422-1.057 1.07-1.099.702-.045 1.408-.01 2.111-.01v-.007c.512 0 1.025.004 1.536 0 .69-.007 1.115.337 1.136 1.018zM97.944 42.868c-.039-.71.298-1.134.997-1.152 1.289-.033 2.586-.082 3.864.04.339.033.805.625.886 1.027.126.624-.258 1.131-.974 1.172-.644.036-1.29.007-1.937.007v.011c-.581 0-1.163.02-1.743-.005-.685-.03-1.056-.405-1.093-1.1zm43.217 21c.044-.788.535-1.127 1.302-1.115.582.01 1.165.002 1.747.003.518.001 1.036.002 1.553.001.802-.002 1.216.457 1.209 1.201-.006.66-.408 1.079-1.113 1.085-1.164.011-2.33.017-3.493.006-.766-.007-1.25-.37-1.205-1.182zm-8.63.062c.008-.79.428-1.174 1.209-1.174l1.74.001c.58.001 1.16-.01 1.739.004.715.019 1.02.453 1.056 1.12.036.689-.25 1.136-.982 1.147-1.223.017-2.447.034-3.67-.006-.648-.02-1.097-.369-1.091-1.092zm3.029-11.662v.016h1.536c.656 0 1.14.236 1.175.968.035.735-.247 1.273-1.067 1.29-1.153.023-2.306.025-3.458 0-.742-.018-1.217-.399-1.209-1.187.01-.836.585-1.066 1.294-1.084.576-.016 1.152-.003 1.729-.003zm6.812 2.278c-.776-.012-1.208-.426-1.208-1.193 0-.692.42-1.062 1.103-1.07 1.222-.015 2.452-.075 3.662.043.376.038 1.017.636.98.9-.065.462-.476 1.08-.892 1.238-.562.214-1.265.054-1.908.054v.03c-.579 0-1.158.008-1.737-.002zm-30.022 9.402c.001.675-.363 1.08-1.066 1.093-.64.013-1.28.003-1.921.003v-.037c-.64 0-1.316.125-1.907-.045-.382-.11-.822-.608-.915-1.007-.148-.635.275-1.14.956-1.168 1.28-.051 2.562-.05 3.843-.01.694.02 1.008.525 1.01 1.171zm-8.618-.138c.055.721-.338 1.158-.983 1.192-1.287.066-2.58.052-3.87 0-.714-.028-1.073-.579-.899-1.21.11-.394.55-.871.932-.975.602-.164 1.28-.044 1.925-.044v-.014c.582 0 1.164-.02 1.744.005.658.027 1.097.327 1.151 1.046zm50.96-11.471c.376.106.86.634.878.993.017.37-.446 1.07-.746 1.097-1.394.123-2.81.129-4.204.015-.31-.025-.79-.708-.785-1.082.005-.359.485-.926.851-1.018.662-.166 1.395-.047 2.099-.048.64-.002 1.314-.125 1.906.043zm-4.878 11.65c-.14-.61.252-1.172.932-1.2 1.34-.055 2.692-.078 4.023.046.318.03.804.694.8 1.061-.003.373-.457.967-.82 1.063-.656.173-1.391.049-2.094.049v.014c-.64 0-1.313.123-1.905-.044-.388-.108-.845-.594-.936-.99zm-2.845 10.596c-.069.384-.59.858-.995.97-.602.163-1.282.042-1.929.042-.646.001-1.327.124-1.927-.043-.387-.107-.846-.597-.933-.991-.136-.607.198-1.171.939-1.189 1.292-.03 2.587-.034 3.879.005.732.023 1.067.636.966 1.206zM155.59 42.8c.003.375-.487 1.053-.805 1.08-1.4.119-2.821.117-4.221-.004-.3-.025-.765-.745-.742-1.12.022-.367.52-.909.9-1.004.664-.164 1.399-.046 2.104-.046v.01c.64 0 1.32-.129 1.908.047.376.112.852.673.856 1.037zm-8.579.039c-.016.58-.347 1.115-1.073 1.13-.64.014-1.282.003-1.922.003v-.015c-.64 0-1.285.047-1.92-.013-.7-.066-1.057-.613-.909-1.217.097-.39.587-.93.943-.965 1.27-.122 2.558-.07 3.839-.057.72.008 1.06.542 1.042 1.134zm8.57 31.65c.107.615-.26 1.088-.995 1.128-.574.031-1.145.113-1.701.17-.723-.063-1.453-.025-2.113-.223-.396-.119-.929-.59-.95-.933-.025-.38.432-1.108.732-1.137 1.381-.13 2.787-.136 4.171-.03.324.025.789.629.856 1.024zM112.36 42.813c-.077.416-.493.983-.865 1.082-.664.176-1.408.05-2.118.05v.025c-.582 0-1.164.02-1.745-.004-.669-.028-1.094-.354-1.131-1.067-.036-.69.294-1.178.974-1.2 1.353-.045 2.71-.003 4.065.033.683.017.906.618.82 1.081zm8.741 21.068c.037.67-.364 1.119-1.034 1.142-1.28.046-2.564.03-3.846.013-.69-.009-1.097-.43-1.094-1.088.004-.741.441-1.178 1.219-1.185.577-.006 1.154-.001 1.731 0 .642 0 1.284-.023 1.924.007.685.03 1.065.468 1.1 1.11zm2.761 0c.02-.384.497-.959.876-1.06.662-.173 1.403-.047 2.11-.047v.007c.643 0 1.322-.125 1.917.046.376.107.857.647.87 1.009.012.375-.455 1.072-.76 1.1-1.4.126-2.822.134-4.224.023-.31-.025-.808-.716-.789-1.079zm-.047-10.684c.059-.534.365-.946 1.023-.918.642.027 1.285.006 1.927.006v.012c.642 0 1.316-.12 1.915.042.394.105.864.565.97.957.17.626-.237 1.177-.915 1.205-1.345.056-2.697.057-4.04-.025-.694-.042-.947-.661-.88-1.28zm5.88-10.33c-.026.694-.431 1.079-1.097 1.096-1.22.03-2.44.01-3.661-.003-.701-.008-1.119-.47-1.125-1.081-.009-.697.392-1.204 1.206-1.188.578.012 1.157.003 1.735.003v.003c.64 0 1.285-.044 1.921.012.662.058 1.047.46 1.02 1.158zm-8.597-.068c.015.746-.421 1.186-1.214 1.182-.58-.003-1.159 0-1.739 0v-.01c-.643 0-1.288.016-1.931-.005-.704-.024-1.05-.46-1.079-1.12-.03-.682.332-1.127 1.022-1.148 1.285-.038 2.573-.029 3.859-.014.709.007 1.07.49 1.082 1.115zm.001 31.71c-.01.654-.392 1.073-1.094 1.085-.642.01-1.283.002-1.578.002-.921.065-1.497.154-2.07.134-.731-.027-1.194-.441-1.255-1.197-.06-.732.463-1.322 1.309-1.33 1.211-.011 2.425.08 3.635.161.682.046 1.064.49 1.053 1.144zm-29.95-1.712c-.365.366-1.016.444-1.846.758l-.092-2.1 1.98-.149c0 .6.19 1.258-.043 1.491zm2.394-2.47c.012-.906-.44-1.296-1.307-1.297-1.359 0-2.718.007-4.077-.017-.967-.018-1.444.455-1.474 1.395-.031.972-.06 1.945-.042 2.918.035 2.042.295 2.277 2.398 2.289.388.002.777 0 1.165 0 .647-.002 1.296-.028 1.942.005 1 .051 1.41-.43 1.395-1.398-.019-1.298-.017-2.596 0-3.894zM91.15 51.732c-.212.31-.858.543-1.246.468-1-.196-.657-1.017-.598-1.874h1.892c0 .503.17 1.087-.048 1.406zm-.888-3.953c-3.594.063-3.55.017-3.608 3.457-.067 3.972.453 3.296 3.456 3.32 3.45-.03 3.498.535 3.436-3.454-.042-2.664.762-3.393-3.284-3.323zm-.98 14.972v-1.88l1.851-.112.128 1.86-1.98.132zm.985-4.288c-.713.001-1.426.021-2.138-.004-.988-.033-1.433.485-1.45 1.413-.023 1.234-.013 2.469-.007 3.703.005.925.428 1.482 1.4 1.487 1.424.008 2.85.008 4.275-.01.774-.01 1.198-.408 1.196-1.212-.002-.714-.004-1.43.004-2.144.037-3.76.016-3.193-3.28-3.233zm-3.593-16.314c0-.71-.011-1.421.016-2.131.035-.923.51-1.43 1.457-1.43 1.353 0 2.705-.007 4.057.01.963.014 1.366.546 1.347 1.492-.025 1.227.024 2.455-.017 3.68-.04 1.205-.29 1.45-1.492 1.528-.705.046-1.416.008-2.125.008-3.242.022-3.243.022-3.243-3.157zm67.613-9.5c-10.825.006-21.65.003-32.474.004h-31.89c-.519 0-1.04.018-1.554-.034-.702-.072-1.103-.576-.956-1.202.092-.395.561-.855.96-.986.528-.175 1.152-.065 1.735-.065 21.39-.006 42.78-.01 64.17-.014 1.568 0 2.042.261 2.054 1.134.012.863-.476 1.162-2.045 1.163zm30.264 84.845H98.761v-2.624c.796-.05 1.602-.143 2.408-.144 16.205-.008 32.41-.005 48.615-.006 9.53 0 19.058-.003 28.586-.005.195 0 .39.01.584.005 1.85-.052 2.135-.32 2.137-2.16.01-7.54-.007-15.08.012-22.62.012-5.066.103-10.132.098-15.198-.02-17.35-.066-34.7-.102-52.05v-2.428h3.451v97.23zm-91.69-5.32c-.033-.618-.079-1.24-.097-1.863-.016-.572-.004-1.144-.004-1.932H171.034c.325 0 .65.002.973 0 2.113-.018 2.43-.33 2.432-2.527.008-5.2-.002-10.401-.003-15.601-.002-24.564-.004-49.128 0-73.692 0-.507.067-1.014.123-1.8.92 0 1.623-.01 2.326.004.51.011 1.018.057 1.5.086.377 1.467.481 95.28.109 97.326H92.86zm-6.815-6.477v-3.335c.775-.028 1.524-.08 2.273-.08 16.33-.005 32.66-.004 48.991-.004 1.887 0 3.793-.05 5.48-.983 1.17-.65 2.345-1.406 3.277-2.352 3.498-3.55 6.917-7.18 10.324-10.816 2.038-2.175 3.984-4.437 6.007-6.625.79-.855 1.688-1.61 2.525-2.422 1.801-1.747 2.778-3.885 2.903-6.389.075-1.491.083-2.987.084-4.48.01-19.04.011-38.079.02-57.118 0-.823.052-1.646.083-2.554h3.734v97.158H86.045zm72.323-23.437l-9.418 10.073V82.259h9.418zM81.574 99.814h-1.867V24.832c2.192-.413 84.305-.317 85.879.123v1.884c0 14.754-.08 29.508.043 44.262.042 4.962-3.981 8.781-8.897 8.714-2.906-.039-5.814.058-8.72.107-.374.006-.747.09-1.169.144-.405 1.43-.5 2.777-.434 4.24.137 3.016.09 6.065-.205 9.07-.323 3.302-3.768 6.255-7.073 6.43-.323.017-.648.005-.972.005l-56.585.003zm-1.94-97.097c1.682-.488 84.099-.52 85.862-.028v19.17c-1.518.429-81.285.609-85.862.202V2.717zm107.45 73.325c.003-6.109.09-12.217.1-18.325.017-12.417.007-24.833.003-37.25 0-2.674-.163-2.824-2.887-2.831-1.012-.004-2.024-.001-3.198-.001 0-1.299.025-2.327-.006-3.353-.05-1.61-.222-1.783-1.81-1.807-1.538-.023-3.076-.005-4.84-.005 0-1.495.009-2.775-.002-4.056-.018-2.096-.238-2.308-2.364-2.336l-4.164-.05c0-1.67.044-3.094-.013-4.513-.049-1.188-.351-1.435-1.557-1.5-.517-.028-1.037-.008-1.556-.008H79.994c-.39 0-.779-.013-1.167.003-1.29.053-1.62.334-1.759 1.552-.052.45-.022.91-.022 1.364-.003 23.143-.008 46.285-.004 69.428 0 1.227.12 2.454.107 3.68-.023 2.191-.154 4.383-.149 6.575.006 2.311.168 4.623.171 6.934.004 3.378-.096 6.755-.108 10.133-.008 2.33.252 2.556 2.553 2.59 1.266.02 2.531.057 3.926.088 0 .874.005 1.518 0 2.161-.034 4.063-.266 3.895 3.944 3.866.878-.007 1.755.02 2.721.032v3.382c.005 2.786.124 2.897 2.988 2.942 1.013.015 2.027.07 3.188.113 0 1.364.012 2.527-.003 3.69-.013.96.425 1.456 1.396 1.456l.972.001c28.59.001 57.18.004 85.77.003 2.358 0 2.632-.22 2.642-2.507.051-10.979.084-21.958.09-32.936.002-2.839-.167-5.677-.166-8.515z"/>
</svg>
