<svg width="40" height="40" viewBox="0 0 40 40" fill="none" xmlns="http://www.w3.org/2000/svg">
<circle cx="20" cy="20" r="20" fill="#7D34C8" fill-opacity="0.0419854"/>
<path fill-rule="evenodd" clip-rule="evenodd" d="M22.4534 13.3334H20.5555V10.4944L24.2682 13.9654C24.3806 14.0704 24.4444 14.2174 24.4444 14.3712V23.3688C23.1067 23.5389 21.8683 24.3136 21.1523 25.5556H13.8888C13.582 25.5556 13.3333 25.3069 13.3333 25V10.5556C13.3333 10.2488 13.582 10 13.8888 10H17.9836C18.2904 10 18.5391 9.7513 18.5391 9.44447C18.5391 9.13765 18.2904 8.88892 17.9836 8.88892H13.8888C12.9684 8.88892 12.2222 9.63511 12.2222 10.5556V25C12.2222 25.9205 12.9684 26.6667 13.8888 26.6667H20.6968C20.1848 28.6409 21.0908 30.7746 22.9832 31.7388C24.2844 32.4018 25.8026 32.3784 27.071 31.712C27.3426 31.5693 27.4471 31.2334 27.3045 30.9618C27.1618 30.6902 26.8259 30.5857 26.5543 30.7284C25.6018 31.2288 24.4641 31.2463 23.4876 30.7488C21.8473 29.913 21.1951 27.9057 22.0309 26.2654C22.8666 24.6251 24.8739 23.973 26.5142 24.8087C28.1545 25.6445 28.8067 27.6518 27.9709 29.2921C27.8316 29.5654 27.9403 29.9 28.2137 30.0393C28.4871 30.1786 28.8216 30.0699 28.9609 29.7965C30.0753 27.6094 29.2057 24.9331 27.0186 23.8187C26.5468 23.5783 26.0522 23.4303 25.5555 23.3678V14.3712C25.5555 13.9097 25.3642 13.4689 25.027 13.1537L20.7533 9.15825C20.4396 8.86489 19.9474 8.88146 19.654 9.19524C19.5193 9.33931 19.4444 9.52918 19.4444 9.72641V13.4445C19.4444 13.9968 19.8921 14.4445 20.4444 14.4445H22.4534C22.7602 14.4445 23.009 14.1957 23.009 13.8889C23.009 13.5821 22.7602 13.3334 22.4534 13.3334ZM16.0555 16.6667C15.7794 16.6667 15.5555 16.8906 15.5555 17.1667V17.2778C15.5555 17.5539 15.7794 17.7778 16.0555 17.7778H21.7222C21.9983 17.7778 22.2222 17.5539 22.2222 17.2778V17.1667C22.2222 16.8906 21.9983 16.6667 21.7222 16.6667H16.0555ZM15.5555 19.3889C15.5555 19.1128 15.7794 18.8889 16.0555 18.8889H21.7222C21.9983 18.8889 22.2222 19.1128 22.2222 19.3889V19.5C22.2222 19.7762 21.9983 20 21.7222 20H16.0555C15.7794 20 15.5555 19.7762 15.5555 19.5V19.3889ZM16.0555 21.1111C15.7794 21.1111 15.5555 21.335 15.5555 21.6111V21.7222C15.5555 21.9984 15.7794 22.2222 16.0555 22.2222H19.4999C19.7761 22.2222 19.9999 21.9984 19.9999 21.7222V21.6111C19.9999 21.335 19.7761 21.1111 19.4999 21.1111H16.0555ZM24.4444 26.0556C24.4444 25.7794 24.6682 25.5556 24.9444 25.5556H25.0555C25.3316 25.5556 25.5555 25.7794 25.5555 26.0556V27.7778H26.1666C26.4428 27.7778 26.6666 28.0017 26.6666 28.2778V28.3889C26.6666 28.6651 26.4428 28.8889 26.1666 28.8889H25.0555H24.9444C24.6682 28.8889 24.4444 28.6651 24.4444 28.3889V28.2778V26.0556Z" fill="#7D34C8"/>
<g opacity="0.01">
<circle cx="32.7779" cy="32.7779" r="6.72222" fill="#5CA30B" stroke="white"/>
<path fill-rule="evenodd" clip-rule="evenodd" d="M32.0597 34.8374C32.2767 34.6204 32.2767 34.2687 32.0597 34.0517L31.3414 33.3334H35.5558C35.8626 33.3334 36.1113 33.0847 36.1113 32.7779C36.1113 32.4711 35.8626 32.2223 35.5558 32.2223H31.3414L32.0597 31.5041C32.2767 31.2871 32.2767 30.9353 32.0597 30.7184C31.8428 30.5014 31.491 30.5014 31.274 30.7184L29.6074 32.385C29.3904 32.602 29.3904 32.9538 29.6074 33.1707L31.274 34.8374C31.491 35.0543 31.8428 35.0543 32.0597 34.8374Z" fill="white"/>
</g>
</svg>
