<svg width="36" height="36" viewBox="0 0 36 36" fill="none" xmlns="http://www.w3.org/2000/svg">
<rect width="36" height="36" rx="18" fill="white"/>
<rect width="36" height="36" rx="18" fill="#B8DDFF" fill-opacity="0.5"/>
<path fill-rule="evenodd" clip-rule="evenodd" d="M16.4 11H11.6C11.2686 11 11 11.2686 11 11.6V16.4C11 16.7314 11.2686 17 11.6 17H16.4C16.7314 17 17 16.7314 17 16.4V11.6C17 11.2686 16.7314 11 16.4 11ZM12 16V12H16V16H12ZM19.6 11H24.4C24.7314 11 25 11.2686 25 11.6V16.4C25 16.7314 24.7314 17 24.4 17H19.6C19.2686 17 19 16.7314 19 16.4V11.6C19 11.2686 19.2686 11 19.6 11ZM20 16V12H24V16H20ZM11.6 19H16.4C16.7314 19 17 19.2686 17 19.6V24.4C17 24.7314 16.7314 25 16.4 25H11.6C11.2686 25 11 24.7314 11 24.4V19.6C11 19.2686 11.2686 19 11.6 19ZM12 24V20H16V24H12ZM13 13H15V15H13V13ZM15 21H13V23H15V21ZM23 21H21V19H19V21H21V23H19V25H21V23H23V25H25V23H23V21ZM23 21V19H25V21H23ZM23 13H21V15H23V13Z" fill="#398DDA"/>
</svg>
